<svg version="1.1" id="Layer_1" xmlns="http://www.w3.org/2000/svg" xmlns:xlink="http://www.w3.org/1999/xlink" x="0px" y="0px"
	 width="100%" viewBox="0 0 800 737" enable-background="new 0 0 800 737" xml:space="preserve">
<path fill="#FFFFFE" opacity="1.000000" stroke="none" 
	d="
M801.000000,249.000000 
	C801.000000,412.333344 801.000000,575.166687 801.000000,738.000000 
	C534.333313,738.000000 267.666656,738.000000 1.000000,738.000000 
	C1.000000,492.333344 1.000000,246.666672 1.000000,1.000000 
	C267.666656,1.000000 534.333313,1.000000 801.000000,1.000000 
	C801.000000,83.500000 801.000000,166.000000 801.000000,249.000000 
M471.093018,533.860168 
	C477.935150,534.419556 483.625244,529.148315 485.050873,520.799683 
	C485.675568,517.141602 486.110016,513.374939 482.107788,511.166718 
	C478.457825,509.152863 473.105286,510.094574 470.723206,514.264771 
	C468.363068,518.396606 467.477570,523.370667 465.466675,527.985413 
	C465.466675,527.985413 464.990112,528.030823 464.554565,527.517456 
	C460.510315,522.605713 455.323395,520.162537 449.124390,521.926514 
	C445.232391,523.033997 441.695282,525.388733 437.524109,527.040588 
	C437.524109,527.040588 437.031189,526.985168 437.093658,526.192566 
	C440.436981,519.802795 434.683960,510.669250 427.366882,507.206207 
	C421.716339,504.531891 416.356293,507.666565 417.049225,513.866394 
	C417.537567,518.235291 419.191162,523.127319 421.962860,526.396912 
	C424.533813,529.429749 429.277985,530.620300 433.010437,532.593018 
	C432.279663,533.938721 430.349518,536.144653 429.901520,538.618958 
	C429.138550,542.832703 427.798523,548.072021 429.595642,551.236450 
	C430.871490,553.482971 436.903809,553.054260 440.826324,553.744751 
	C441.444916,553.853638 442.133240,553.564331 442.789642,553.461243 
	C449.869598,552.349182 456.843781,551.687683 463.951752,553.955200 
	C469.169647,555.619690 473.036957,552.389221 472.446960,546.902405 
	C471.994568,542.695068 470.347473,538.616211 469.792877,534.124451 
	C469.962280,533.981750 470.131714,533.839111 471.093018,533.860168 
M233.780182,49.954277 
	C275.355560,17.828609 320.822083,11.240770 370.166199,28.817127 
	C382.513611,33.215267 395.044098,37.277554 407.757629,40.409588 
	C416.776947,42.631531 426.124298,42.288918 433.375122,37.283958 
	C416.826874,31.217638 399.593689,25.663610 382.985229,18.633556 
	C357.847534,7.993225 332.011414,3.722608 304.948486,7.024266 
	C274.680542,10.716929 249.853683,23.780153 232.114395,49.953430 
	C232.149246,50.216671 232.184097,50.479912 232.218933,50.743164 
	C232.519958,50.538361 232.820969,50.333561 233.780182,49.954277 
M283.913818,114.417435 
	C284.186707,114.438644 284.459595,114.459854 284.732483,114.481049 
	C284.475739,114.330620 284.219025,114.180191 283.877655,113.352631 
	C277.542694,109.863960 271.586304,104.931908 264.802979,103.152878 
	C243.040497,97.445335 223.157166,103.038422 205.783142,116.746498 
	C190.190323,129.049194 183.714462,145.139969 188.807968,164.968307 
	C194.097931,185.561432 206.886124,197.779388 228.435333,199.981354 
	C245.151566,201.689468 261.860626,203.499649 278.601837,204.923737 
	C302.381073,206.946518 320.137207,217.901199 331.130096,239.325180 
	C332.420044,241.839127 333.874359,244.271622 335.098511,246.815948 
	C342.378082,261.946320 349.421478,277.193573 356.910400,292.219086 
	C366.161285,310.779724 376.987915,328.346954 392.572235,342.383148 
	C409.857025,357.950928 429.571472,369.135590 453.406433,368.808136 
	C487.840393,368.334961 516.909607,354.276550 540.924805,329.943298 
	C545.992249,324.808777 549.513123,318.147949 553.746643,312.190399 
	C553.166504,311.619751 552.586426,311.049103 552.006348,310.478455 
	C546.747742,313.793610 541.348694,316.908051 536.262207,320.469055 
	C527.810913,326.385773 519.944397,333.221527 511.156982,338.559662 
	C477.747253,358.855133 433.622681,361.451385 400.459839,324.867950 
	C388.294739,311.448120 378.416595,296.478607 370.076294,280.490234 
	C361.696167,264.425568 353.864197,248.074265 345.439209,232.033890 
	C331.512451,205.518570 308.661652,192.612671 279.481232,190.014587 
	C265.066833,188.731171 250.562119,188.391541 236.175018,186.889587 
	C214.746780,184.652512 205.636978,176.567474 202.280563,158.035904 
	C199.128235,140.630981 205.950195,126.796730 221.692825,118.692841 
	C231.340698,113.726364 241.758224,111.118088 252.442734,111.206085 
	C262.990021,111.292969 273.524261,112.967094 283.913818,114.417435 
M31.410557,346.925385 
	C28.093666,322.171051 24.479080,297.403320 26.903238,272.337250 
	C31.202900,227.878204 47.675747,190.971344 90.866081,170.974548 
	C93.360847,169.819504 94.181396,163.774551 92.348663,159.704834 
	C90.698456,156.040436 88.086426,158.396515 86.057739,159.172180 
	C61.996799,168.371765 45.551182,186.045883 32.914841,207.700836 
	C16.734224,235.429626 11.842232,265.929962 14.176871,297.279144 
	C16.435619,327.609253 20.923595,357.776245 24.553162,388.000397 
	C27.060423,408.878845 29.187452,429.782379 25.320597,450.681976 
	C20.237446,478.155396 14.574594,505.521912 9.539134,533.003662 
	C3.795739,564.349121 -0.500299,595.821594 3.993987,627.799316 
	C9.794141,669.068481 30.912588,698.911194 69.871063,714.845886 
	C106.665039,729.895142 145.243500,736.552734 184.896286,736.797791 
	C217.277817,736.997864 249.303558,732.580627 281.341034,728.473206 
	C309.420837,724.873169 337.543671,721.107178 365.916718,721.996033 
	C387.862885,722.683472 409.774780,724.544495 431.693268,726.012695 
	C457.105164,727.714905 482.488434,729.926331 507.918823,731.250305 
	C542.544800,733.052979 577.174744,733.428223 611.475403,726.927246 
	C654.148254,718.839355 687.971924,697.363892 711.911133,660.741943 
	C737.350769,621.824341 749.451843,579.073059 748.800354,532.727783 
	C748.341675,500.100037 747.300049,467.480804 746.614990,434.855713 
	C746.433472,426.213287 746.708008,417.561066 746.510132,408.919403 
	C746.480225,407.613983 745.051880,405.266022 744.198181,405.232330 
	C739.457336,405.045349 733.916443,410.883667 734.001953,415.627838 
	C734.668091,452.585693 735.301331,489.544342 736.076172,526.500000 
	C736.845276,563.183350 730.588257,598.219055 714.167358,631.447327 
	C691.167786,677.987610 655.393616,706.987366 603.605774,715.347412 
	C578.346924,719.424866 552.940430,720.829834 527.454224,719.321960 
	C488.913483,717.041626 450.365631,714.669922 411.899353,711.410217 
	C381.094025,708.799622 350.367279,708.229370 319.649628,711.423523 
	C287.695435,714.746277 255.837738,719.000427 223.880524,722.290405 
	C176.225845,727.196472 129.549408,722.720581 84.087463,706.881531 
	C47.482910,694.128357 24.638731,669.633789 17.568853,631.094910 
	C13.431901,608.543762 13.978675,585.884766 17.651541,563.478821 
	C22.628654,533.116516 28.786236,502.946350 34.533802,472.712128 
	C38.682545,450.888306 41.793938,428.994354 39.099342,406.724579 
	C36.720505,387.064392 34.118958,367.431183 31.410557,346.925385 
M634.684387,427.183075 
	C626.614197,433.649353 619.702454,440.954224 617.479858,451.530609 
	C615.636780,460.301086 616.180054,468.680817 622.139282,477.609711 
	C621.859619,466.139160 625.258606,457.326630 632.009460,450.217773 
	C637.477112,444.460175 643.138000,438.330536 649.912720,434.472229 
	C671.558167,422.144836 693.604370,410.488922 715.797913,399.165863 
	C735.208801,389.262543 754.725525,379.726013 772.663574,367.124603 
	C794.183228,352.007141 801.714783,331.270782 799.477051,306.007477 
	C797.884033,288.022400 791.376648,283.030121 773.524963,286.029663 
	C772.542847,286.194702 771.570312,286.436951 770.608582,286.699219 
	C753.930298,291.247131 737.230896,295.720581 720.594971,300.418549 
	C716.552124,301.560242 712.869507,301.378754 709.847656,298.592896 
	C704.239624,293.422791 699.125916,287.705719 693.408875,282.667542 
	C687.472534,277.436096 681.754944,270.768890 674.692993,268.297394 
	C665.478699,265.072632 662.805786,259.038025 661.228760,251.036133 
	C660.779114,248.754135 660.345581,246.468964 659.909180,244.184372 
	C658.193481,235.202286 656.786133,226.143539 654.579956,217.283661 
	C653.910522,214.595123 651.173767,210.653595 649.138245,210.497864 
	C646.267639,210.278244 642.258728,212.327652 640.377258,214.705292 
	C637.467163,218.382751 635.654480,223.043396 633.898438,227.493134 
	C631.097168,234.591476 628.963928,241.957367 626.065552,249.011810 
	C624.702759,252.328888 622.216797,255.184525 619.752930,259.004059 
	C615.414856,250.340195 611.708496,242.903320 607.971008,235.482071 
	C603.335815,226.278244 598.845886,216.994827 593.943481,207.935028 
	C591.897888,204.154510 588.478333,201.177887 583.756897,202.296097 
	C579.027405,203.416229 578.662659,207.808884 577.969116,211.819016 
	C576.186707,222.127106 574.436951,232.446075 572.358032,242.696609 
	C567.501343,266.643951 562.218506,290.507538 557.615723,314.502350 
	C555.875854,323.572083 556.454407,332.887146 561.029297,341.244629 
	C562.183105,343.352448 565.246338,344.415070 567.432129,345.957977 
	C568.703186,343.968689 570.720276,342.111664 571.101013,339.964478 
	C572.113586,334.254089 572.838440,328.425812 572.938721,322.631622 
	C573.470398,291.934570 579.097107,262.131714 588.174988,232.902893 
	C588.616760,231.480209 589.256897,230.119095 590.075745,228.041641 
	C595.623901,240.391357 600.189148,252.036484 605.973816,263.040619 
	C612.679993,275.797791 620.294373,288.093079 627.905762,300.345825 
	C629.445068,302.823700 632.504822,304.792389 635.298096,305.891754 
	C636.958862,306.545380 640.022156,305.628540 641.409607,304.314240 
	C642.410461,303.366119 642.416199,300.189758 641.591248,298.725098 
	C639.567871,295.132812 636.738831,292.003571 634.361450,288.598999 
	C631.671509,284.746857 629.120789,280.797516 626.077393,276.243774 
	C630.311279,275.832581 633.114563,275.417572 635.929565,275.309967 
	C654.950806,274.582886 671.831726,279.464569 684.923462,294.178558 
	C687.689636,297.287506 690.590332,300.278259 693.313965,303.423187 
	C699.969299,311.107971 708.144226,314.476837 718.267090,312.343231 
	C725.743896,310.767334 733.254395,309.305359 740.651978,307.410614 
	C751.598083,304.606995 762.448792,301.432892 773.357971,298.482391 
	C777.667236,297.316895 780.353027,298.683167 782.357300,303.069763 
	C789.559937,318.833649 787.295044,334.601898 774.098999,347.425293 
	C766.642334,354.671417 758.447693,361.714081 749.385193,366.640198 
	C728.087830,378.216949 706.116760,388.563995 684.327209,399.222565 
	C667.443726,407.481354 650.285767,415.214935 634.684387,427.183075 
M650.231873,128.069138 
	C665.717773,130.612503 680.877380,134.332428 695.148193,141.035767 
	C713.749023,149.772995 728.754028,162.402710 738.233643,181.035934 
	C747.976379,200.186081 750.282593,220.708878 749.209900,241.724640 
	C748.659668,252.505920 746.948303,263.225861 745.885254,273.985748 
	C745.757202,275.282104 745.953125,277.308380 746.772949,277.873657 
	C749.577515,279.807526 758.358643,275.012299 758.904358,271.454712 
	C761.767151,252.793274 763.188904,234.090408 761.042419,215.221542 
	C756.570862,175.912476 737.375916,146.941681 701.223022,129.939499 
	C673.542603,116.921844 643.873230,113.152504 613.772949,112.212631 
	C566.117920,110.724640 519.095703,116.924072 472.169006,124.388115 
	C465.472015,125.453323 462.292816,128.198807 460.777740,134.374054 
	C459.738831,138.608582 460.171295,139.323257 464.659363,138.717194 
	C494.829773,134.643234 524.936951,129.962982 555.199219,126.745407 
	C586.552002,123.411865 618.028870,123.359901 650.231873,128.069138 
M122.895790,386.856750 
	C126.282333,396.888489 127.418861,407.216553 123.836861,417.221100 
	C121.063377,424.967468 116.820038,432.203796 113.034424,439.566254 
	C110.196777,445.085052 107.047806,450.443756 104.037453,455.873718 
	C104.513641,456.391541 104.989838,456.909393 105.466026,457.427216 
	C110.182823,454.908325 115.372322,452.999146 119.538040,449.769470 
	C142.863647,431.685303 148.893036,399.407318 133.897064,374.151215 
	C129.058517,366.002167 123.726250,358.143311 118.976036,349.945312 
	C99.149796,315.728973 105.839569,266.119873 142.076859,241.941483 
	C147.233810,238.500656 151.354752,233.445129 155.686798,228.882111 
	C156.557510,227.964981 156.209930,225.891266 156.424072,224.350815 
	C154.902100,224.143585 153.076797,223.286545 151.906586,223.832825 
	C143.231262,227.882553 133.792053,231.016083 126.252655,236.656204 
	C90.768684,263.201355 79.294128,316.355621 104.520439,355.162903 
	C111.028572,365.174774 116.615509,375.785492 122.895790,386.856750 
M125.270340,664.395325 
	C128.065659,664.582153 131.317963,665.706543 133.503113,664.641479 
	C135.081406,663.872192 136.062973,660.117126 135.852905,657.827393 
	C135.479675,653.759399 134.362427,649.657654 132.924194,645.806152 
	C125.002861,624.593384 118.713120,602.961487 114.782021,580.626465 
	C113.978249,576.059692 114.064537,570.071655 107.465340,568.978516 
	C102.859123,568.215576 98.789085,571.663269 96.540672,579.379578 
	C94.181099,587.477356 92.534966,595.816345 91.096611,604.139709 
	C89.721756,612.095642 89.015083,620.167175 88.026825,628.090759 
	C82.763985,628.697083 77.531502,629.270996 76.492043,634.381348 
	C75.936760,637.111389 78.590981,640.494263 80.305450,644.885559 
	C79.990318,646.923950 79.271263,650.663208 78.873955,654.436218 
	C78.561394,657.404480 79.100227,660.824829 82.593460,660.923096 
	C85.094597,660.993469 88.436600,659.597290 90.006271,657.699707 
	C92.365913,654.847168 93.584869,651.020020 95.141983,647.541504 
	C98.000717,641.155212 100.396912,639.577698 106.963043,640.017639 
	C115.005173,640.556519 118.344421,643.035767 120.285980,649.629639 
	C121.683937,654.377380 123.279930,659.066833 125.270340,664.395325 
M351.808960,636.343933 
	C352.374023,633.573242 353.205597,630.826477 353.456909,628.027588 
	C354.420074,617.299377 355.396057,606.562988 355.857056,595.807739 
	C355.938599,593.904541 353.478729,590.215820 352.374939,590.284485 
	C350.014893,590.431335 347.125671,591.999878 345.659027,593.911316 
	C344.048157,596.010864 343.312042,599.101990 343.036072,601.845703 
	C342.188232,610.274231 341.870361,618.755249 341.082336,627.191162 
	C340.734222,630.917664 339.749847,634.584778 339.054321,638.278809 
	C338.367645,638.258728 337.680969,638.238647 336.994293,638.218567 
	C334.973145,632.288086 333.023346,626.332153 330.914307,620.433167 
	C327.674774,611.372192 324.748352,602.164795 320.886444,593.372009 
	C317.926117,586.631897 312.802490,581.429382 305.481812,578.401306 
	C305.143860,579.638489 304.912720,580.425110 304.714233,581.219788 
	C299.119354,603.620911 299.199585,626.398743 300.499023,649.210632 
	C300.719513,653.082092 302.109497,657.037354 303.727448,660.605469 
	C304.384399,662.054321 307.272736,663.531982 308.821960,663.245483 
	C310.399170,662.953735 311.903168,660.679932 312.818817,658.946289 
	C313.444702,657.761414 313.102692,656.009827 313.029236,654.519653 
	C312.447571,642.721741 311.737427,630.929382 311.256378,619.127625 
	C311.029144,613.552673 311.217438,607.960754 311.217438,602.376526 
	C311.992462,602.182678 312.767487,601.988892 313.542511,601.795105 
	C315.670197,606.839600 318.100616,611.780457 319.868103,616.948120 
	C324.916290,631.707886 330.603302,646.289368 332.056702,662.066040 
	C332.459839,666.441956 334.863403,670.129822 340.125946,669.890137 
	C345.174561,669.660156 346.529388,665.885010 347.259613,661.690125 
	C348.683899,653.507202 350.144562,645.330688 351.808960,636.343933 
M485.119995,612.753235 
	C483.917084,622.465149 482.888336,632.202759 481.456055,641.880737 
	C480.315643,649.586670 478.931427,657.220337 481.039551,664.919189 
	C487.353210,664.557373 490.860626,662.256287 491.930969,656.321594 
	C492.983276,650.487061 492.767517,644.428589 493.189606,638.474182 
	C493.546875,633.433899 494.020416,628.401855 494.491119,622.786438 
	C501.414154,628.029907 509.170288,639.335266 514.091309,650.077087 
	C516.224182,654.732849 518.535461,659.443726 521.640503,663.451965 
	C522.935486,665.123535 526.868958,666.087830 528.930542,665.389404 
	C530.472229,664.867126 532.245850,660.712158 531.640320,658.962280 
	C529.664856,653.253235 527.152527,647.577759 523.878662,642.515442 
	C520.933960,637.962158 516.554749,634.361145 513.124207,630.086609 
	C511.481110,628.039307 510.568604,625.405640 509.222168,622.841309 
	C523.278564,619.458496 531.283142,610.266174 529.565857,598.965759 
	C528.859009,594.314453 526.661987,589.234131 523.571838,585.737122 
	C517.184265,578.508606 508.055328,579.678162 499.402008,580.486084 
	C498.778259,577.858398 498.816681,575.185974 497.555450,573.467224 
	C496.165741,571.573425 493.689575,569.766296 491.476990,569.465698 
	C490.240997,569.297913 488.121155,572.045105 487.237213,573.881836 
	C486.341858,575.742432 486.262115,578.093933 486.203400,580.240723 
	C486.012329,587.228516 483.533447,593.115295 478.642334,598.160156 
	C476.833618,600.025757 475.228699,602.371460 474.349274,604.795227 
	C472.637482,609.513062 475.210327,612.110718 480.137421,611.375305 
	C481.702820,611.141724 483.379761,611.655823 485.119995,612.753235 
M242.937607,612.497009 
	C243.132736,611.689270 243.419281,610.891418 243.508698,610.072144 
	C244.298279,602.836304 245.415817,595.608398 245.651962,588.352600 
	C245.757004,585.124817 244.131653,581.652100 240.061066,581.068604 
	C235.904694,580.472717 233.871338,583.331665 232.944336,586.675659 
	C231.663437,591.296265 231.065186,596.101074 229.971756,600.779663 
	C227.673416,610.613892 225.570221,620.514587 222.691986,630.181091 
	C221.663391,633.635559 218.628494,636.492615 216.509338,639.622375 
	C216.004883,639.427185 215.500427,639.232056 214.995987,639.036926 
	C213.331497,633.656616 211.395721,628.342773 210.058594,622.882385 
	C207.212906,611.261536 204.923111,599.500183 201.878830,587.934998 
	C200.858673,584.059326 198.865921,579.991455 196.118622,577.185425 
	C194.448288,575.479370 190.485092,576.018188 187.551895,575.548584 
	C187.271881,577.737183 186.338074,580.079895 186.812164,582.090698 
	C191.999878,604.094727 197.365692,626.057190 202.787888,648.005066 
	C203.979141,652.826965 205.268326,657.671692 207.091995,662.276306 
	C208.688278,666.306885 211.567612,669.415283 216.555099,668.958374 
	C221.214478,668.531555 223.012939,664.991028 223.870453,661.180542 
	C225.395584,654.403564 228.084534,648.329895 232.355164,642.812439 
	C234.035843,640.641052 235.020264,637.824524 235.904099,635.163086 
	C238.310959,627.915405 240.495026,620.593750 242.937607,612.497009 
M144.844742,88.329834 
	C138.999176,101.204079 135.203964,114.540611 135.860352,128.848297 
	C136.214584,136.569534 139.283585,140.441315 146.206268,141.595840 
	C146.456589,139.828735 146.731201,138.070816 146.951782,136.306122 
	C150.044952,111.558853 158.241211,88.828392 173.583435,68.925079 
	C191.863770,45.210217 216.313553,29.689539 242.878479,17.088791 
	C253.648224,11.980295 264.682617,7.429724 276.333984,2.300657 
	C256.044495,3.918055 237.654160,9.378304 220.236420,17.952778 
	C188.295258,33.676918 161.549850,55.127987 144.844742,88.329834 
M454.697205,661.326538 
	C461.218872,657.811584 464.873657,651.947266 465.855530,645.025208 
	C467.203156,635.524414 468.007355,625.868286 468.011383,616.278320 
	C468.015015,607.676086 466.732300,599.061340 465.795624,590.476196 
	C465.364777,586.527527 463.542145,583.259827 458.903107,583.521606 
	C454.555969,583.766968 454.040344,587.509949 453.395721,590.758850 
	C453.011444,592.695862 452.919128,594.738098 453.020447,596.716431 
	C453.624054,608.501038 454.543488,620.273987 454.903839,632.064758 
	C455.111450,638.857300 453.298309,645.294800 448.389526,650.385376 
	C441.875977,657.140198 433.125885,656.015869 430.194336,647.183167 
	C427.679108,639.604797 426.292267,631.342285 426.174683,623.356323 
	C426.028656,613.440002 427.921295,603.508789 428.464630,593.558411 
	C428.640778,590.332275 427.341461,587.025513 426.642395,583.364868 
	C419.555786,585.890076 417.605499,591.183960 416.151642,596.386780 
	C411.438934,613.251404 411.386536,630.264404 416.097778,647.132080 
	C419.355621,658.796082 427.488037,664.968994 439.581482,664.703735 
	C444.429443,664.597412 449.239899,662.780212 454.697205,661.326538 
M121.545197,85.042534 
	C111.102379,108.494614 107.264763,133.108047 109.212013,158.585068 
	C110.234604,171.964249 113.533104,184.828674 120.838783,196.360626 
	C127.527184,206.918213 136.738892,213.983673 148.924576,216.954651 
	C152.194000,211.461563 152.087982,207.224518 148.202698,203.122742 
	C145.467636,200.235275 142.068283,197.977005 139.333405,195.089401 
	C136.282028,191.867645 132.881012,188.628754 130.966782,184.740311 
	C123.755486,170.091812 121.628143,154.333557 122.392418,138.157242 
	C123.623123,112.108665 131.321396,87.528435 139.665268,63.105251 
	C140.197662,61.546921 140.635376,59.956245 141.117142,58.380615 
	C131.920181,65.286652 126.471703,74.526459 121.545197,85.042534 
M640.896118,592.663635 
	C640.642883,587.303955 637.826599,583.645630 633.184265,581.303223 
	C617.363464,573.320801 596.310425,583.032532 592.154114,600.198853 
	C589.279053,612.073242 593.666687,621.095581 604.780701,626.216736 
	C609.604065,628.439209 614.506042,630.519653 619.187561,633.011780 
	C622.445984,634.746399 625.569031,637.084167 625.049622,641.458801 
	C624.520386,645.915039 621.052795,647.684509 617.301086,648.975952 
	C610.195068,651.421936 604.163513,649.266418 598.043579,645.365356 
	C594.126221,642.868286 589.370544,641.460571 584.804688,640.290100 
	C582.012451,639.574280 580.683533,641.327454 581.513428,644.540527 
	C582.949829,650.102112 586.179382,654.232300 591.289978,656.453552 
	C605.566345,662.658386 619.649536,661.574280 632.763489,653.447266 
	C641.565552,647.992554 642.174194,638.181091 634.521851,631.075928 
	C631.038940,627.842041 626.719727,625.485474 622.689453,622.870239 
	C617.681763,619.620911 612.431824,616.725708 607.568176,613.280029 
	C603.894653,610.677551 602.603027,606.826660 603.646851,602.261536 
	C605.850403,592.624756 615.921326,588.365662 625.289612,593.090698 
	C628.676636,594.799011 632.077087,596.638000 635.681885,597.708923 
	C638.737854,598.616760 641.419678,597.670410 640.896118,592.663635 
M373.711304,44.899014 
	C346.907288,42.130280 320.531158,42.480816 295.831207,55.386364 
	C297.468781,56.012024 299.063416,55.993713 300.657562,56.014893 
	C314.464600,56.198322 328.280212,56.143539 342.076599,56.631596 
	C366.061920,57.480087 389.848541,59.855583 412.671814,67.998383 
	C426.357361,72.881073 438.595825,79.993904 447.885895,91.479317 
	C449.577454,93.570610 451.106171,95.793579 453.527344,99.057549 
	C453.509064,86.576103 451.109924,76.720123 441.678955,69.593391 
	C421.804718,54.574970 398.784882,48.228752 373.711304,44.899014 
M514.825378,542.704956 
	C515.047424,545.690063 515.091675,548.701904 515.534302,551.653931 
	C516.158508,555.817505 518.627808,557.325439 522.652588,556.137024 
	C526.537354,554.989929 529.170837,552.496704 528.938293,548.251038 
	C528.712097,544.121521 528.005737,540.005432 527.304504,535.918701 
	C526.738281,532.619263 527.652710,530.962158 531.075500,529.701050 
	C539.002747,526.780334 546.868347,523.560547 554.412170,519.771545 
	C560.754456,516.585999 565.799866,511.700348 568.232117,504.674072 
	C570.571838,497.915009 569.720337,494.188202 564.157593,489.888763 
	C560.890686,487.363831 557.389771,484.979462 553.663086,483.241669 
	C541.823303,477.720612 529.539062,477.287598 517.270203,481.582397 
	C515.462158,482.215302 513.982727,484.939789 513.298584,487.009644 
	C513.056946,487.740601 515.600403,489.460266 516.964417,490.620148 
	C517.509399,491.083588 518.303223,491.254333 518.407654,491.300964 
	C514.494812,508.276581 514.263367,524.994141 514.825378,542.704956 
M141.417191,581.236450 
	C141.377914,582.222961 140.989105,583.367859 141.353363,584.171448 
	C145.039169,592.303345 143.738403,600.772888 143.461182,609.244629 
	C143.069702,621.208191 142.797195,633.198120 143.156525,645.156250 
	C143.418457,653.873291 147.203232,656.054443 155.358597,652.836182 
	C164.251740,649.326721 171.456451,643.512390 176.818817,635.551086 
	C188.949677,617.540710 184.584747,600.857117 165.278259,591.333008 
	C161.346619,589.393433 157.861496,587.262878 156.104004,582.744385 
	C153.039719,574.866089 148.084854,574.241394 141.417191,581.236450 
M106.650513,483.036041 
	C98.967361,478.365784 90.463898,478.236633 81.975868,479.129395 
	C80.150795,479.321320 78.585052,481.978973 76.899834,483.500793 
	C78.119041,484.718109 79.314606,485.960388 80.564377,487.145477 
	C81.713432,488.234924 83.865799,489.196960 83.944733,490.328888 
	C84.366142,496.371765 84.286575,502.450226 84.356728,508.516632 
	C84.382591,510.752319 84.089195,513.022339 84.379082,515.218994 
	C85.636543,524.747009 87.150139,534.242065 88.325996,543.779297 
	C88.529686,545.431274 87.698418,547.282776 87.084129,548.945679 
	C86.291283,551.092041 85.235710,553.141235 84.293274,555.232239 
	C86.989006,555.418396 89.698593,555.849487 92.375198,555.697937 
	C93.956085,555.608521 95.746513,554.928894 96.993294,553.945068 
	C103.621475,548.714905 110.663239,543.846191 116.520264,537.837219 
	C126.853775,527.235413 123.884888,516.004211 109.978149,510.675049 
	C107.605270,509.765717 105.149803,509.071930 102.194366,508.101990 
	C107.938248,503.433899 113.023506,499.238953 118.179634,495.132996 
	C121.505562,492.484467 120.928810,489.806244 117.804588,487.925446 
	C114.569855,485.978119 110.885597,484.777496 106.650513,483.036041 
M377.113861,644.424866 
	C378.221710,650.638367 378.993256,656.942383 380.626831,663.014465 
	C381.170380,665.034851 383.672180,667.392456 385.725128,667.948914 
	C389.172607,668.883240 391.317505,666.128052 392.037842,662.993103 
	C392.736206,659.953735 393.383453,656.681519 392.987854,653.650635 
	C391.375610,641.298462 389.164581,629.024475 387.551819,616.672363 
	C386.492462,608.558594 386.079285,600.360413 385.372375,592.149536 
	C390.248260,591.668701 393.788605,591.630554 397.184265,590.910278 
	C402.019196,589.884644 406.886536,588.713013 411.473145,586.920776 
	C414.518158,585.730835 415.653320,582.778076 414.578400,579.381836 
	C413.517059,576.028503 411.243683,574.487671 407.762207,574.970764 
	C405.796570,575.243530 403.878937,575.857422 401.914307,576.143311 
	C396.386108,576.947876 390.863098,578.033936 385.303467,578.307922 
	C379.669861,578.585632 373.993958,577.845825 368.338379,577.877502 
	C361.259796,577.917114 358.170227,579.688782 358.186371,583.435974 
	C358.212280,589.445190 362.738464,589.967346 367.169037,590.515442 
	C367.663666,590.576721 368.153656,590.796753 368.640564,590.781006 
	C373.819824,590.613708 374.891052,593.693909 375.044922,598.149048 
	C375.567383,613.276917 376.334808,628.396362 377.113861,644.424866 
M552.360840,602.280518 
	C557.270813,600.821106 562.228760,599.502686 567.074341,597.853821 
	C570.431458,596.711487 573.878906,595.136230 573.319946,590.663818 
	C572.754517,586.139099 568.716858,584.960571 565.458923,585.397339 
	C558.653442,586.309631 551.865845,587.921021 545.322205,590.026367 
	C540.793762,591.483337 539.903503,595.526550 540.224915,600.232666 
	C540.686523,606.990723 540.851501,613.841309 540.286072,620.580444 
	C539.414368,630.970032 537.816650,641.298767 536.501160,651.859741 
	C548.211548,655.022827 559.194214,657.422180 570.634033,655.026855 
	C574.691406,654.177368 577.320618,651.840881 577.055420,647.453613 
	C576.774719,642.811340 572.839539,642.639526 569.645874,642.538391 
	C564.174744,642.365112 558.685242,642.880859 553.201294,642.966553 
	C548.245972,643.044006 546.042175,640.707825 547.579468,635.979736 
	C548.451904,633.296631 550.758240,630.418823 553.211182,629.073547 
	C556.448914,627.297913 560.458740,626.918701 564.146484,625.977539 
	C567.997009,624.994873 571.951843,624.324341 575.689270,623.023499 
	C579.216370,621.795959 580.068298,618.678467 579.477417,615.249146 
	C578.865662,611.698486 576.107727,610.971802 573.096191,611.037109 
	C571.119019,611.079956 569.123901,611.389587 567.182922,611.798340 
	C562.233154,612.840881 557.309082,614.005981 552.044739,615.196655 
	C552.044739,610.712891 552.044739,606.910156 552.360840,602.280518 
M283.869568,594.492981 
	C284.638824,592.327087 286.458618,589.813843 285.888916,588.090637 
	C285.290588,586.280823 282.293213,583.926392 280.535767,584.075012 
	C273.863831,584.639160 267.040222,585.409668 260.708771,587.452515 
	C254.012085,589.613281 252.387070,593.221680 254.273621,599.949768 
	C256.378815,607.457642 255.620575,614.733459 254.310226,622.153870 
	C252.896576,630.159363 251.546570,638.184204 250.549026,646.247620 
	C250.367462,647.715271 251.669327,650.435059 252.869080,650.836853 
	C262.941559,654.210022 273.303497,655.358459 283.818298,653.207886 
	C287.751831,652.403320 290.626129,650.277893 290.101868,645.653870 
	C289.541840,640.714111 285.636414,640.805176 282.171082,640.922729 
	C276.693451,641.108643 271.228607,641.696289 265.761108,642.147400 
	C263.078766,642.368713 261.555145,641.506409 260.790802,638.612610 
	C259.085876,632.157593 261.096741,628.058411 268.008118,626.357300 
	C273.962708,624.891541 280.138031,624.335693 286.116180,622.948425 
	C291.735352,621.644470 294.117279,618.269897 292.903687,613.746460 
	C291.614899,608.942810 287.583618,609.255310 283.964081,609.885620 
	C278.001434,610.923950 272.113434,612.390747 265.602844,613.805420 
	C265.406769,611.017944 265.162598,608.578796 265.079102,606.134216 
	C264.930298,601.775146 266.441833,599.130981 271.374756,598.470642 
	C275.418243,597.929321 279.294464,596.138977 283.869568,594.492981 
M415.454163,123.022827 
	C396.702789,95.091408 370.427704,79.493408 337.182129,75.464958 
	C335.187378,75.223251 332.732452,75.661819 331.074097,76.707535 
	C329.642151,77.610458 328.416840,79.797012 328.328278,81.480705 
	C328.282318,82.353729 330.775055,83.796089 332.332550,84.241821 
	C338.872864,86.113586 345.587708,87.406876 352.066772,89.455566 
	C373.733032,96.306519 390.045258,110.729126 405.135681,127.022217 
	C412.271790,134.727051 420.218964,141.680725 427.798645,148.974731 
	C428.388550,148.507172 428.978424,148.039597 429.568329,147.572037 
	C425.006805,139.581329 420.445282,131.590637 415.454163,123.022827 
M631.271240,517.597839 
	C631.553406,520.577271 631.859131,523.554688 632.113586,526.536499 
	C633.017395,537.126770 633.733093,547.738892 634.993408,558.286194 
	C635.168396,559.750427 637.872070,561.746216 639.625732,562.005798 
	C642.790466,562.474365 643.161133,559.747009 643.010742,557.236877 
	C642.493652,548.607239 641.904419,539.981750 641.429016,531.349854 
	C641.021118,523.944519 640.731689,516.532715 640.365051,508.586487 
	C642.998047,508.586487 644.802307,508.741760 646.570007,508.553467 
	C650.017517,508.186218 653.596313,508.067017 656.814453,506.957031 
	C658.371582,506.419922 659.235535,503.873199 660.413269,502.236359 
	C658.824585,501.331238 657.256653,499.708313 655.643250,499.661865 
	C651.553650,499.544128 647.443665,500.133545 643.077637,500.459503 
	C642.386719,491.971283 643.966187,484.096710 646.763306,476.353210 
	C647.322327,474.805634 647.595642,471.705048 647.040100,471.455078 
	C644.603821,470.358734 641.701599,469.321777 639.194641,469.713074 
	C637.610718,469.960297 635.757263,472.569794 635.205017,474.463898 
	C634.144348,478.101685 633.246155,482.026672 633.480408,485.757141 
	C634.178406,496.868378 629.628113,502.900574 618.316223,504.128540 
	C616.608276,504.313934 613.833740,507.775879 614.011658,509.462921 
	C614.366211,512.825745 617.743225,513.362671 620.711975,512.524048 
	C623.647217,511.694885 626.447754,510.388824 629.686890,509.146423 
	C630.219360,511.886444 630.690369,514.310242 631.271240,517.597839 
M318.745178,501.067963 
	C317.079620,502.610840 314.167694,503.995148 313.947998,505.721985 
	C312.359344,518.210327 312.599304,530.664185 317.977478,542.391052 
	C322.919464,553.166809 332.750977,555.541321 342.024963,548.089783 
	C344.791199,545.867188 347.181763,542.829285 348.885193,539.697571 
	C353.812225,530.639343 354.862244,520.674316 353.724854,510.630920 
	C353.097229,505.088806 350.636047,499.914948 344.689392,497.964539 
	C343.056549,497.429016 340.526611,497.787537 339.213379,498.790192 
	C338.389221,499.419342 338.734558,502.101105 339.158264,503.702423 
	C339.613464,505.422943 340.854675,506.919983 341.614105,508.578094 
	C346.450775,519.137878 345.846222,529.331909 338.765625,538.634277 
	C337.029602,540.915100 333.855103,542.101013 331.341919,543.790344 
	C329.917358,541.272217 327.521393,538.856140 327.244110,536.217407 
	C326.277832,527.022522 325.791779,517.754639 325.641571,508.506073 
	C325.568207,503.987091 324.809906,500.905518 318.745178,501.067963 
M266.030060,502.196381 
	C259.636353,502.384552 256.718628,504.531281 258.493805,508.331024 
	C264.102600,520.336609 269.726562,532.389282 276.335876,543.852234 
	C280.079224,550.344421 285.451355,549.590271 288.469452,542.622559 
	C293.545807,530.903076 298.004913,518.917297 302.803680,507.075928 
	C304.211700,503.601440 306.006348,500.282684 307.388611,496.799194 
	C307.951782,495.379913 308.420715,492.526886 308.024963,492.349335 
	C305.396179,491.170044 302.519165,489.953918 299.727234,489.963928 
	C298.206482,489.969391 295.935333,492.073639 295.316437,493.724030 
	C293.221130,499.311462 291.944977,505.202850 289.917480,510.819885 
	C287.655853,517.085388 284.915192,523.178040 282.383057,529.345886 
	C281.737549,529.319763 281.092072,529.293579 280.446564,529.267456 
	C278.291138,523.932861 276.426971,518.454285 273.885071,513.310669 
	C271.969452,509.434387 269.185699,505.987122 266.030060,502.196381 
M374.733856,539.556763 
	C379.635590,536.442017 384.553833,533.352783 389.435272,530.206543 
	C397.098877,525.267273 397.999878,521.537048 393.111359,513.769653 
	C391.720642,511.559845 389.944550,509.428192 387.902863,507.823395 
	C381.802582,503.028595 374.902985,501.825043 367.799255,505.161407 
	C360.860107,508.420471 358.225586,514.700928 358.242615,521.943237 
	C358.253052,526.384644 358.911774,530.904419 359.896271,535.249268 
	C363.450806,550.936768 374.773773,557.608154 390.090240,553.308655 
	C394.990295,551.933228 396.199280,548.540833 393.578125,544.148926 
	C389.515564,545.156738 385.576385,546.656067 381.538574,547.001221 
	C376.672455,547.417236 374.169708,544.640625 374.733856,539.556763 
M605.343323,544.982544 
	C600.662354,546.862915 595.937317,548.851257 591.252197,545.129639 
	C588.572998,543.001343 587.685364,540.718567 591.327576,538.513123 
	C595.584778,535.935425 599.800598,533.289185 604.022827,530.654175 
	C612.382996,525.436768 613.385742,520.815552 607.726501,512.693298 
	C603.206970,506.206726 596.947144,502.856201 588.977661,503.494415 
	C582.483337,504.014465 577.820068,507.510681 575.133362,513.447632 
	C570.625183,523.410095 575.026001,542.807800 583.339661,549.954529 
	C589.042969,554.857300 600.398438,556.537781 606.868591,552.649170 
	C608.663757,551.570312 608.983154,548.036011 609.979675,545.628296 
	C608.680359,545.319153 607.381042,545.010010 605.343323,544.982544 
M162.751343,515.869080 
	C161.995773,514.581726 161.349869,513.213135 160.466675,512.020264 
	C155.062363,504.721191 145.771973,501.590240 137.955017,504.367371 
	C130.674271,506.953979 126.721870,513.580139 126.827950,523.095642 
	C126.850182,525.090149 126.909019,527.091919 127.102989,529.075500 
	C129.011902,548.596130 140.777313,557.757690 158.236252,553.351929 
	C163.374496,552.055298 164.764435,548.249084 161.591003,543.806580 
	C159.166763,544.729187 156.735931,546.322937 154.236191,546.439575 
	C150.965836,546.592163 147.310608,546.263306 144.430222,544.876282 
	C141.404434,543.419189 140.933456,540.641785 144.591156,538.473816 
	C149.305313,535.679749 153.970413,532.792908 158.548187,529.781128 
	C165.078003,525.485168 165.495056,524.062073 162.751343,515.869080 
M249.962830,529.464172 
	C256.288971,524.779968 257.267975,522.015625 253.174988,515.253479 
	C250.946060,511.570953 247.665146,507.948029 243.978577,505.830505 
	C231.717667,498.788055 218.058548,506.837891 217.892685,520.945862 
	C217.838364,525.566895 218.195038,530.288574 219.123566,534.808105 
	C222.381119,550.663574 233.902206,557.517639 249.506546,553.216064 
	C254.360641,551.877930 255.585953,548.430176 252.663788,543.778015 
	C250.257660,544.694824 247.824173,546.325684 245.346848,546.395203 
	C241.935211,546.490967 238.179199,546.065247 235.151505,544.634155 
	C232.384369,543.326294 231.937378,540.617798 235.421173,538.580200 
	C240.150009,535.814209 244.733887,532.800476 249.962830,529.464172 
M366.863129,139.543304 
	C372.455566,139.543304 378.048004,139.543304 383.640442,139.543304 
	C383.686584,139.101990 383.732727,138.660690 383.778870,138.219376 
	C382.406799,137.812973 381.046631,137.359619 379.660858,137.007156 
	C356.496887,131.115692 335.834686,120.671562 318.496826,103.935013 
	C314.939575,100.501160 310.860229,97.486031 306.646576,94.885452 
	C301.477814,91.695404 295.682159,91.119492 290.018280,92.271149 
	C295.573822,98.031219 301.139069,103.523102 306.391663,109.299286 
	C322.433197,126.939796 341.089447,139.283569 366.863129,139.543304 
M171.737411,540.794373 
	C171.101532,543.880432 170.341537,546.947510 169.866150,550.058105 
	C169.427338,552.929260 170.029968,555.325256 173.428711,556.154602 
	C176.847443,556.988708 179.596848,556.260925 180.489426,552.679016 
	C181.603073,548.209961 182.845062,543.619690 182.902191,539.067566 
	C183.124893,521.325195 182.861298,503.577148 182.883224,485.831360 
	C182.886810,482.935486 183.451904,479.814941 179.697601,479.033051 
	C176.020859,478.267273 172.724106,479.652405 171.928558,483.461639 
	C171.096558,487.445435 170.459885,491.804077 171.199921,495.722748 
	C173.982574,510.457611 172.782135,525.165405 171.737411,540.794373 
M197.090622,529.342896 
	C196.210464,535.908813 195.409943,542.486755 194.416565,549.035461 
	C193.920410,552.306152 194.045242,555.018188 197.869965,556.115112 
	C201.571091,557.176514 204.491898,556.067810 205.089737,552.264771 
	C206.187195,545.283447 207.182129,538.216003 207.314758,531.167419 
	C207.602005,515.903015 207.235413,500.627319 207.341156,485.357666 
	C207.360947,482.500793 207.595520,479.276886 204.258102,479.202057 
	C201.776291,479.146362 197.950012,480.672241 197.026764,482.598206 
	C195.480484,485.823853 195.267899,489.945862 195.383026,493.663116 
	C195.741638,505.241577 196.517242,516.807129 197.090622,529.342896 
M472.911804,502.946899 
	C472.998962,501.288971 473.598572,499.439575 473.065582,498.013397 
	C471.988983,495.132568 470.825073,490.802460 468.730927,490.144226 
	C465.860901,489.242096 461.157532,490.142975 458.897705,492.143646 
	C453.732819,496.716370 452.285461,503.243713 454.309875,509.941101 
	C456.386444,516.810913 463.868317,518.215454 468.265228,512.566040 
	C470.246490,510.020355 471.273071,506.731659 472.911804,502.946899 
M441.356903,514.300781 
	C446.607910,515.156128 449.340363,513.668396 450.875275,508.912415 
	C452.702728,503.250122 451.923798,497.785889 449.248291,492.559692 
	C447.526764,489.197021 444.919678,487.024170 440.934387,487.497711 
	C436.848907,487.983185 434.462097,490.629333 433.355804,494.426727 
	C431.323364,501.403229 434.448883,509.695007 441.356903,514.300781 
z"/>
<path fill="#FF9006" opacity="1.000000" stroke="none" 
	d="
M31.513151,347.355713 
	C34.118958,367.431183 36.720505,387.064392 39.099342,406.724579 
	C41.793938,428.994354 38.682545,450.888306 34.533802,472.712128 
	C28.786236,502.946350 22.628654,533.116516 17.651541,563.478821 
	C13.978675,585.884766 13.431901,608.543762 17.568853,631.094910 
	C24.638731,669.633789 47.482910,694.128357 84.087463,706.881531 
	C129.549408,722.720581 176.225845,727.196472 223.880524,722.290405 
	C255.837738,719.000427 287.695435,714.746277 319.649628,711.423523 
	C350.367279,708.229370 381.094025,708.799622 411.899353,711.410217 
	C450.365631,714.669922 488.913483,717.041626 527.454224,719.321960 
	C552.940430,720.829834 578.346924,719.424866 603.605774,715.347412 
	C655.393616,706.987366 691.167786,677.987610 714.167358,631.447327 
	C730.588257,598.219055 736.845276,563.183350 736.076172,526.500000 
	C735.301331,489.544342 734.668091,452.585693 734.001953,415.627838 
	C733.916443,410.883667 739.457336,405.045349 744.198181,405.232330 
	C745.051880,405.266022 746.480225,407.613983 746.510132,408.919403 
	C746.708008,417.561066 746.433472,426.213287 746.614990,434.855713 
	C747.300049,467.480804 748.341675,500.100037 748.800354,532.727783 
	C749.451843,579.073059 737.350769,621.824341 711.911133,660.741943 
	C687.971924,697.363892 654.148254,718.839355 611.475403,726.927246 
	C577.174744,733.428223 542.544800,733.052979 507.918823,731.250305 
	C482.488434,729.926331 457.105164,727.714905 431.693268,726.012695 
	C409.774780,724.544495 387.862885,722.683472 365.916718,721.996033 
	C337.543671,721.107178 309.420837,724.873169 281.341034,728.473206 
	C249.303558,732.580627 217.277817,736.997864 184.896286,736.797791 
	C145.243500,736.552734 106.665039,729.895142 69.871063,714.845886 
	C30.912588,698.911194 9.794141,669.068481 3.993987,627.799316 
	C-0.500299,595.821594 3.795739,564.349121 9.539134,533.003662 
	C14.574594,505.521912 20.237446,478.155396 25.320597,450.681976 
	C29.187452,429.782379 27.060423,408.878845 24.553162,388.000397 
	C20.923595,357.776245 16.435619,327.609253 14.176871,297.279144 
	C11.842232,265.929962 16.734224,235.429626 32.914841,207.700836 
	C45.551182,186.045883 61.996799,168.371765 86.057739,159.172180 
	C88.086426,158.396515 90.698456,156.040436 92.348663,159.704834 
	C94.181396,163.774551 93.360847,169.819504 90.866081,170.974548 
	C47.675747,190.971344 31.202900,227.878204 26.903238,272.337250 
	C24.479080,297.403320 28.093666,322.171051 31.513151,347.355713 
z"/>
<path fill="#0681A6" opacity="1.000000" stroke="none" 
	d="
M634.977722,426.983887 
	C650.285767,415.214935 667.443726,407.481354 684.327209,399.222565 
	C706.116760,388.563995 728.087830,378.216949 749.385193,366.640198 
	C758.447693,361.714081 766.642334,354.671417 774.098999,347.425293 
	C787.295044,334.601898 789.559937,318.833649 782.357300,303.069763 
	C780.353027,298.683167 777.667236,297.316895 773.357971,298.482391 
	C762.448792,301.432892 751.598083,304.606995 740.651978,307.410614 
	C733.254395,309.305359 725.743896,310.767334 718.267090,312.343231 
	C708.144226,314.476837 699.969299,311.107971 693.313965,303.423187 
	C690.590332,300.278259 687.689636,297.287506 684.923462,294.178558 
	C671.831726,279.464569 654.950806,274.582886 635.929565,275.309967 
	C633.114563,275.417572 630.311279,275.832581 626.077393,276.243774 
	C629.120789,280.797516 631.671509,284.746857 634.361450,288.598999 
	C636.738831,292.003571 639.567871,295.132812 641.591248,298.725098 
	C642.416199,300.189758 642.410461,303.366119 641.409607,304.314240 
	C640.022156,305.628540 636.958862,306.545380 635.298096,305.891754 
	C632.504822,304.792389 629.445068,302.823700 627.905762,300.345825 
	C620.294373,288.093079 612.679993,275.797791 605.973816,263.040619 
	C600.189148,252.036484 595.623901,240.391357 590.075745,228.041641 
	C589.256897,230.119095 588.616760,231.480209 588.174988,232.902893 
	C579.097107,262.131714 573.470398,291.934570 572.938721,322.631622 
	C572.838440,328.425812 572.113586,334.254089 571.101013,339.964478 
	C570.720276,342.111664 568.703186,343.968689 567.432129,345.957977 
	C565.246338,344.415070 562.183105,343.352448 561.029297,341.244629 
	C556.454407,332.887146 555.875854,323.572083 557.615723,314.502350 
	C562.218506,290.507538 567.501343,266.643951 572.358032,242.696609 
	C574.436951,232.446075 576.186707,222.127106 577.969116,211.819016 
	C578.662659,207.808884 579.027405,203.416229 583.756897,202.296097 
	C588.478333,201.177887 591.897888,204.154510 593.943481,207.935028 
	C598.845886,216.994827 603.335815,226.278244 607.971008,235.482071 
	C611.708496,242.903320 615.414856,250.340195 619.752930,259.004059 
	C622.216797,255.184525 624.702759,252.328888 626.065552,249.011810 
	C628.963928,241.957367 631.097168,234.591476 633.898438,227.493134 
	C635.654480,223.043396 637.467163,218.382751 640.377258,214.705292 
	C642.258728,212.327652 646.267639,210.278244 649.138245,210.497864 
	C651.173767,210.653595 653.910522,214.595123 654.579956,217.283661 
	C656.786133,226.143539 658.193481,235.202286 659.909180,244.184372 
	C660.345581,246.468964 660.779114,248.754135 661.228760,251.036133 
	C662.805786,259.038025 665.478699,265.072632 674.692993,268.297394 
	C681.754944,270.768890 687.472534,277.436096 693.408875,282.667542 
	C699.125916,287.705719 704.239624,293.422791 709.847656,298.592896 
	C712.869507,301.378754 716.552124,301.560242 720.594971,300.418549 
	C737.230896,295.720581 753.930298,291.247131 770.608582,286.699219 
	C771.570312,286.436951 772.542847,286.194702 773.524963,286.029663 
	C791.376648,283.030121 797.884033,288.022400 799.477051,306.007477 
	C801.714783,331.270782 794.183228,352.007141 772.663574,367.124603 
	C754.725525,379.726013 735.208801,389.262543 715.797913,399.165863 
	C693.604370,410.488922 671.558167,422.144836 649.912720,434.472229 
	C643.138000,438.330536 637.477112,444.460175 632.009460,450.217773 
	C625.258606,457.326630 621.859619,466.139160 622.139282,477.609711 
	C616.180054,468.680817 615.636780,460.301086 617.479858,451.530609 
	C619.702454,440.954224 626.614197,433.649353 634.977722,426.983887 
M652.014709,253.553970 
	C650.583191,245.473923 649.731995,237.203018 644.203857,229.504349 
	C639.796997,240.691574 635.673096,251.160431 631.323669,262.201752 
	C639.198914,262.841370 645.949219,263.389618 653.279053,263.984955 
	C652.798645,259.972839 652.466309,257.197052 652.014709,253.553970 
z"/>
<path fill="#0580A6" opacity="1.000000" stroke="none" 
	d="
M284.064209,113.944893 
	C273.524261,112.967094 262.990021,111.292969 252.442734,111.206085 
	C241.758224,111.118088 231.340698,113.726364 221.692825,118.692841 
	C205.950195,126.796730 199.128235,140.630981 202.280563,158.035904 
	C205.636978,176.567474 214.746780,184.652512 236.175018,186.889587 
	C250.562119,188.391541 265.066833,188.731171 279.481232,190.014587 
	C308.661652,192.612671 331.512451,205.518570 345.439209,232.033890 
	C353.864197,248.074265 361.696167,264.425568 370.076294,280.490234 
	C378.416595,296.478607 388.294739,311.448120 400.459839,324.867950 
	C433.622681,361.451385 477.747253,358.855133 511.156982,338.559662 
	C519.944397,333.221527 527.810913,326.385773 536.262207,320.469055 
	C541.348694,316.908051 546.747742,313.793610 552.006348,310.478455 
	C552.586426,311.049103 553.166504,311.619751 553.746643,312.190399 
	C549.513123,318.147949 545.992249,324.808777 540.924805,329.943298 
	C516.909607,354.276550 487.840393,368.334961 453.406433,368.808136 
	C429.571472,369.135590 409.857025,357.950928 392.572235,342.383148 
	C376.987915,328.346954 366.161285,310.779724 356.910400,292.219086 
	C349.421478,277.193573 342.378082,261.946320 335.098511,246.815948 
	C333.874359,244.271622 332.420044,241.839127 331.130096,239.325180 
	C320.137207,217.901199 302.381073,206.946518 278.601837,204.923737 
	C261.860626,203.499649 245.151566,201.689468 228.435333,199.981354 
	C206.886124,197.779388 194.097931,185.561432 188.807968,164.968307 
	C183.714462,145.139969 190.190323,129.049194 205.783142,116.746498 
	C223.157166,103.038422 243.040497,97.445335 264.802979,103.152878 
	C271.586304,104.931908 277.542694,109.863960 283.945312,113.669846 
	C284.013000,113.987061 284.064209,113.944893 284.064209,113.944893 
z"/>
<path fill="#FF9007" opacity="1.000000" stroke="none" 
	d="
M649.795227,128.032227 
	C618.028870,123.359901 586.552002,123.411865 555.199219,126.745407 
	C524.936951,129.962982 494.829773,134.643234 464.659363,138.717194 
	C460.171295,139.323257 459.738831,138.608582 460.777740,134.374054 
	C462.292816,128.198807 465.472015,125.453323 472.169006,124.388115 
	C519.095703,116.924072 566.117920,110.724640 613.772949,112.212631 
	C643.873230,113.152504 673.542603,116.921844 701.223022,129.939499 
	C737.375916,146.941681 756.570862,175.912476 761.042419,215.221542 
	C763.188904,234.090408 761.767151,252.793274 758.904358,271.454712 
	C758.358643,275.012299 749.577515,279.807526 746.772949,277.873657 
	C745.953125,277.308380 745.757202,275.282104 745.885254,273.985748 
	C746.948303,263.225861 748.659668,252.505920 749.209900,241.724640 
	C750.282593,220.708878 747.976379,200.186081 738.233643,181.035934 
	C728.754028,162.402710 713.749023,149.772995 695.148193,141.035767 
	C680.877380,134.332428 665.717773,130.612503 649.795227,128.032227 
z"/>
<path fill="#0581A6" opacity="1.000000" stroke="none" 
	d="
M122.760696,386.488953 
	C116.615509,375.785492 111.028572,365.174774 104.520439,355.162903 
	C79.294128,316.355621 90.768684,263.201355 126.252655,236.656204 
	C133.792053,231.016083 143.231262,227.882553 151.906586,223.832825 
	C153.076797,223.286545 154.902100,224.143585 156.424072,224.350815 
	C156.209930,225.891266 156.557510,227.964981 155.686798,228.882111 
	C151.354752,233.445129 147.233810,238.500656 142.076859,241.941483 
	C105.839569,266.119873 99.149796,315.728973 118.976036,349.945312 
	C123.726250,358.143311 129.058517,366.002167 133.897064,374.151215 
	C148.893036,399.407318 142.863647,431.685303 119.538040,449.769470 
	C115.372322,452.999146 110.182823,454.908325 105.466026,457.427216 
	C104.989838,456.909393 104.513641,456.391541 104.037453,455.873718 
	C107.047806,450.443756 110.196777,445.085052 113.034424,439.566254 
	C116.820038,432.203796 121.063377,424.967468 123.836861,417.221100 
	C127.418861,407.216553 126.282333,396.888489 122.760696,386.488953 
z"/>
<path fill="#FF8F04" opacity="1.000000" stroke="none" 
	d="
M125.028969,664.088806 
	C123.279930,659.066833 121.683937,654.377380 120.285980,649.629639 
	C118.344421,643.035767 115.005173,640.556519 106.963043,640.017639 
	C100.396912,639.577698 98.000717,641.155212 95.141983,647.541504 
	C93.584869,651.020020 92.365913,654.847168 90.006271,657.699707 
	C88.436600,659.597290 85.094597,660.993469 82.593460,660.923096 
	C79.100227,660.824829 78.561394,657.404480 78.873955,654.436218 
	C79.271263,650.663208 79.990318,646.923950 80.305450,644.885559 
	C78.590981,640.494263 75.936760,637.111389 76.492043,634.381348 
	C77.531502,629.270996 82.763985,628.697083 88.026825,628.090759 
	C89.015083,620.167175 89.721756,612.095642 91.096611,604.139709 
	C92.534966,595.816345 94.181099,587.477356 96.540672,579.379578 
	C98.789085,571.663269 102.859123,568.215576 107.465340,568.978516 
	C114.064537,570.071655 113.978249,576.059692 114.782021,580.626465 
	C118.713120,602.961487 125.002861,624.593384 132.924194,645.806152 
	C134.362427,649.657654 135.479675,653.759399 135.852905,657.827393 
	C136.062973,660.117126 135.081406,663.872192 133.503113,664.641479 
	C131.317963,665.706543 128.065659,664.582153 125.028969,664.088806 
M103.840256,628.615356 
	C106.430283,628.615356 109.020302,628.615356 111.635971,628.615356 
	C110.685272,615.673340 108.993652,612.209229 102.907951,610.925476 
	C102.278740,615.551514 101.487488,620.139587 101.138588,624.761108 
	C101.046402,625.982239 102.318253,627.306396 103.840256,628.615356 
z"/>
<path fill="#FF9006" opacity="1.000000" stroke="none" 
	d="
M351.699585,636.747681 
	C350.144562,645.330688 348.683899,653.507202 347.259613,661.690125 
	C346.529388,665.885010 345.174561,669.660156 340.125946,669.890137 
	C334.863403,670.129822 332.459839,666.441956 332.056702,662.066040 
	C330.603302,646.289368 324.916290,631.707886 319.868103,616.948120 
	C318.100616,611.780457 315.670197,606.839600 313.542511,601.795105 
	C312.767487,601.988892 311.992462,602.182678 311.217438,602.376526 
	C311.217438,607.960754 311.029144,613.552673 311.256378,619.127625 
	C311.737427,630.929382 312.447571,642.721741 313.029236,654.519653 
	C313.102692,656.009827 313.444702,657.761414 312.818817,658.946289 
	C311.903168,660.679932 310.399170,662.953735 308.821960,663.245483 
	C307.272736,663.531982 304.384399,662.054321 303.727448,660.605469 
	C302.109497,657.037354 300.719513,653.082092 300.499023,649.210632 
	C299.199585,626.398743 299.119354,603.620911 304.714233,581.219788 
	C304.912720,580.425110 305.143860,579.638489 305.481812,578.401306 
	C312.802490,581.429382 317.926117,586.631897 320.886444,593.372009 
	C324.748352,602.164795 327.674774,611.372192 330.914307,620.433167 
	C333.023346,626.332153 334.973145,632.288086 336.994293,638.218567 
	C337.680969,638.238647 338.367645,638.258728 339.054321,638.278809 
	C339.749847,634.584778 340.734222,630.917664 341.082336,627.191162 
	C341.870361,618.755249 342.188232,610.274231 343.036072,601.845703 
	C343.312042,599.101990 344.048157,596.010864 345.659027,593.911316 
	C347.125671,591.999878 350.014893,590.431335 352.374939,590.284485 
	C353.478729,590.215820 355.938599,593.904541 355.857056,595.807739 
	C355.396057,606.562988 354.420074,617.299377 353.456909,628.027588 
	C353.205597,630.826477 352.374023,633.573242 351.699585,636.747681 
z"/>
<path fill="#FF9006" opacity="1.000000" stroke="none" 
	d="
M485.062836,612.290527 
	C483.379761,611.655823 481.702820,611.141724 480.137421,611.375305 
	C475.210327,612.110718 472.637482,609.513062 474.349274,604.795227 
	C475.228699,602.371460 476.833618,600.025757 478.642334,598.160156 
	C483.533447,593.115295 486.012329,587.228516 486.203400,580.240723 
	C486.262115,578.093933 486.341858,575.742432 487.237213,573.881836 
	C488.121155,572.045105 490.240997,569.297913 491.476990,569.465698 
	C493.689575,569.766296 496.165741,571.573425 497.555450,573.467224 
	C498.816681,575.185974 498.778259,577.858398 499.402008,580.486084 
	C508.055328,579.678162 517.184265,578.508606 523.571838,585.737122 
	C526.661987,589.234131 528.859009,594.314453 529.565857,598.965759 
	C531.283142,610.266174 523.278564,619.458496 509.222168,622.841309 
	C510.568604,625.405640 511.481110,628.039307 513.124207,630.086609 
	C516.554749,634.361145 520.933960,637.962158 523.878662,642.515442 
	C527.152527,647.577759 529.664856,653.253235 531.640320,658.962280 
	C532.245850,660.712158 530.472229,664.867126 528.930542,665.389404 
	C526.868958,666.087830 522.935486,665.123535 521.640503,663.451965 
	C518.535461,659.443726 516.224182,654.732849 514.091309,650.077087 
	C509.170288,639.335266 501.414154,628.029907 494.491119,622.786438 
	C494.020416,628.401855 493.546875,633.433899 493.189606,638.474182 
	C492.767517,644.428589 492.983276,650.487061 491.930969,656.321594 
	C490.860626,662.256287 487.353210,664.557373 481.039551,664.919189 
	C478.931427,657.220337 480.315643,649.586670 481.456055,641.880737 
	C482.888336,632.202759 483.917084,622.465149 485.062836,612.290527 
M516.762939,608.076355 
	C517.125061,604.423218 518.374329,600.577148 517.632080,597.164185 
	C516.630615,592.558960 512.453735,590.011414 507.861694,590.216614 
	C504.149536,590.382446 499.394409,591.023254 497.078369,593.388611 
	C492.952118,597.602722 495.092529,607.159119 499.841125,610.894165 
	C504.619171,614.652405 511.182190,613.770630 516.762939,608.076355 
z"/>
<path fill="#0681A6" opacity="1.000000" stroke="none" 
	d="
M232.483124,49.513882 
	C249.853683,23.780153 274.680542,10.716929 304.948486,7.024266 
	C332.011414,3.722608 357.847534,7.993225 382.985229,18.633556 
	C399.593689,25.663610 416.826874,31.217638 433.375122,37.283958 
	C426.124298,42.288918 416.776947,42.631531 407.757629,40.409588 
	C395.044098,37.277554 382.513611,33.215267 370.166199,28.817127 
	C320.822083,11.240770 275.355560,17.828609 233.295166,49.883858 
	C232.810135,49.813438 232.483124,49.513882 232.483124,49.513882 
z"/>
<path fill="#FF8F05" opacity="1.000000" stroke="none" 
	d="
M242.852478,612.899170 
	C240.495026,620.593750 238.310959,627.915405 235.904099,635.163086 
	C235.020264,637.824524 234.035843,640.641052 232.355164,642.812439 
	C228.084534,648.329895 225.395584,654.403564 223.870453,661.180542 
	C223.012939,664.991028 221.214478,668.531555 216.555099,668.958374 
	C211.567612,669.415283 208.688278,666.306885 207.091995,662.276306 
	C205.268326,657.671692 203.979141,652.826965 202.787888,648.005066 
	C197.365692,626.057190 191.999878,604.094727 186.812164,582.090698 
	C186.338074,580.079895 187.271881,577.737183 187.551880,575.548584 
	C190.485092,576.018188 194.448288,575.479370 196.118622,577.185425 
	C198.865921,579.991455 200.858673,584.059326 201.878830,587.934998 
	C204.923111,599.500183 207.212906,611.261536 210.058594,622.882385 
	C211.395721,628.342773 213.331497,633.656616 214.995987,639.036926 
	C215.500427,639.232056 216.004883,639.427185 216.509338,639.622375 
	C218.628494,636.492615 221.663391,633.635559 222.691986,630.181091 
	C225.570221,620.514587 227.673416,610.613892 229.971756,600.779663 
	C231.065186,596.101074 231.663437,591.296265 232.944336,586.675659 
	C233.871338,583.331665 235.904694,580.472717 240.061066,581.068604 
	C244.131653,581.652100 245.757004,585.124817 245.651962,588.352600 
	C245.415817,595.608398 244.298279,602.836304 243.508698,610.072144 
	C243.419281,610.891418 243.132736,611.689270 242.852478,612.899170 
z"/>
<path fill="#0681A6" opacity="1.000000" stroke="none" 
	d="
M144.977280,87.978012 
	C161.549850,55.127987 188.295258,33.676918 220.236420,17.952778 
	C237.654160,9.378304 256.044495,3.918055 276.333984,2.300657 
	C264.682617,7.429724 253.648224,11.980295 242.878479,17.088791 
	C216.313553,29.689539 191.863770,45.210217 173.583435,68.925079 
	C158.241211,88.828392 150.044952,111.558853 146.951782,136.306122 
	C146.731201,138.070816 146.456589,139.828735 146.206268,141.595840 
	C139.283585,140.441315 136.214584,136.569534 135.860352,128.848297 
	C135.203964,114.540611 138.999176,101.204079 144.977280,87.978012 
z"/>
<path fill="#FF9006" opacity="1.000000" stroke="none" 
	d="
M454.382324,661.534119 
	C449.239899,662.780212 444.429443,664.597412 439.581482,664.703735 
	C427.488037,664.968994 419.355621,658.796082 416.097778,647.132080 
	C411.386536,630.264404 411.438934,613.251404 416.151642,596.386780 
	C417.605499,591.183960 419.555786,585.890076 426.642395,583.364868 
	C427.341461,587.025513 428.640778,590.332275 428.464630,593.558411 
	C427.921295,603.508789 426.028656,613.440002 426.174683,623.356323 
	C426.292267,631.342285 427.679108,639.604797 430.194336,647.183167 
	C433.125885,656.015869 441.875977,657.140198 448.389526,650.385376 
	C453.298309,645.294800 455.111450,638.857300 454.903839,632.064758 
	C454.543488,620.273987 453.624054,608.501038 453.020447,596.716431 
	C452.919128,594.738098 453.011444,592.695862 453.395721,590.758850 
	C454.040344,587.509949 454.555969,583.766968 458.903107,583.521606 
	C463.542145,583.259827 465.364777,586.527527 465.795624,590.476196 
	C466.732300,599.061340 468.015015,607.676086 468.011383,616.278320 
	C468.007355,625.868286 467.203156,635.524414 465.855530,645.025208 
	C464.873657,651.947266 461.218872,657.811584 454.382324,661.534119 
z"/>
<path fill="#0681A6" opacity="1.000000" stroke="none" 
	d="
M121.699356,84.699448 
	C126.471703,74.526459 131.920181,65.286652 141.117142,58.380615 
	C140.635376,59.956245 140.197662,61.546921 139.665268,63.105251 
	C131.321396,87.528435 123.623123,112.108665 122.392418,138.157242 
	C121.628143,154.333557 123.755486,170.091812 130.966782,184.740311 
	C132.881012,188.628754 136.282028,191.867645 139.333405,195.089401 
	C142.068283,197.977005 145.467636,200.235275 148.202698,203.122742 
	C152.087982,207.224518 152.194000,211.461563 148.924576,216.954651 
	C136.738892,213.983673 127.527184,206.918213 120.838783,196.360626 
	C113.533104,184.828674 110.234604,171.964249 109.212013,158.585068 
	C107.264763,133.108047 111.102379,108.494614 121.699356,84.699448 
z"/>
<path fill="#FF9006" opacity="1.000000" stroke="none" 
	d="
M640.936279,593.079468 
	C641.419678,597.670410 638.737854,598.616760 635.681885,597.708923 
	C632.077087,596.638000 628.676636,594.799011 625.289612,593.090698 
	C615.921326,588.365662 605.850403,592.624756 603.646851,602.261536 
	C602.603027,606.826660 603.894653,610.677551 607.568176,613.280029 
	C612.431824,616.725708 617.681763,619.620911 622.689453,622.870239 
	C626.719727,625.485474 631.038940,627.842041 634.521851,631.075928 
	C642.174194,638.181091 641.565552,647.992554 632.763489,653.447266 
	C619.649536,661.574280 605.566345,662.658386 591.289978,656.453552 
	C586.179382,654.232300 582.949829,650.102112 581.513428,644.540527 
	C580.683533,641.327454 582.012451,639.574280 584.804688,640.290100 
	C589.370544,641.460571 594.126221,642.868286 598.043579,645.365356 
	C604.163513,649.266418 610.195068,651.421936 617.301086,648.975952 
	C621.052795,647.684509 624.520386,645.915039 625.049622,641.458801 
	C625.569031,637.084167 622.445984,634.746399 619.187561,633.011780 
	C614.506042,630.519653 609.604065,628.439209 604.780701,626.216736 
	C593.666687,621.095581 589.279053,612.073242 592.154114,600.198853 
	C596.310425,583.032532 617.363464,573.320801 633.184265,581.303223 
	C637.826599,583.645630 640.642883,587.303955 640.936279,593.079468 
z"/>
<path fill="#0781A6" opacity="1.000000" stroke="none" 
	d="
M374.160583,44.941345 
	C398.784882,48.228752 421.804718,54.574970 441.678955,69.593391 
	C451.109924,76.720123 453.509064,86.576103 453.527344,99.057549 
	C451.106171,95.793579 449.577454,93.570610 447.885895,91.479317 
	C438.595825,79.993904 426.357361,72.881073 412.671814,67.998383 
	C389.848541,59.855583 366.061920,57.480087 342.076599,56.631596 
	C328.280212,56.143539 314.464600,56.198322 300.657562,56.014893 
	C299.063416,55.993713 297.468781,56.012024 295.831207,55.386364 
	C320.531158,42.480816 346.907288,42.130280 374.160583,44.941345 
z"/>
<path fill="#0781A6" opacity="1.000000" stroke="none" 
	d="
M514.822144,542.239990 
	C514.263367,524.994141 514.494812,508.276581 518.407654,491.300964 
	C518.303223,491.254333 517.509399,491.083588 516.964417,490.620148 
	C515.600403,489.460266 513.056946,487.740601 513.298584,487.009644 
	C513.982727,484.939789 515.462158,482.215302 517.270203,481.582397 
	C529.539062,477.287598 541.823303,477.720612 553.663086,483.241669 
	C557.389771,484.979462 560.890686,487.363831 564.157593,489.888763 
	C569.720337,494.188202 570.571838,497.915009 568.232117,504.674072 
	C565.799866,511.700348 560.754456,516.585999 554.412170,519.771545 
	C546.868347,523.560547 539.002747,526.780334 531.075500,529.701050 
	C527.652710,530.962158 526.738281,532.619263 527.304504,535.918701 
	C528.005737,540.005432 528.712097,544.121521 528.938293,548.251038 
	C529.170837,552.496704 526.537354,554.989929 522.652588,556.137024 
	C518.627808,557.325439 516.158508,555.817505 515.534302,551.653931 
	C515.091675,548.701904 515.047424,545.690063 514.822144,542.239990 
M526.870605,511.522095 
	C526.991943,517.203064 527.998352,518.270874 533.377991,518.426086 
	C543.495422,518.718018 554.777283,509.550812 556.563721,499.424622 
	C548.055420,493.410614 539.815186,486.537750 528.253174,489.130890 
	C528.800720,491.911102 529.836182,494.289124 529.592529,496.527954 
	C529.076538,501.268402 527.893250,505.936218 526.870605,511.522095 
z"/>
<path fill="#FF8F05" opacity="1.000000" stroke="none" 
	d="
M141.605316,580.901123 
	C148.084854,574.241394 153.039719,574.866089 156.104004,582.744385 
	C157.861496,587.262878 161.346619,589.393433 165.278259,591.333008 
	C184.584747,600.857117 188.949677,617.540710 176.818817,635.551086 
	C171.456451,643.512390 164.251740,649.326721 155.358597,652.836182 
	C147.203232,656.054443 143.418457,653.873291 143.156525,645.156250 
	C142.797195,633.198120 143.069702,621.208191 143.461182,609.244629 
	C143.738403,600.772888 145.039169,592.303345 141.353363,584.171448 
	C140.989105,583.367859 141.377914,582.222961 141.605316,580.901123 
M158.170822,600.353638 
	C158.170822,613.104431 158.170822,625.855225 158.170822,638.717834 
	C158.950150,638.268188 160.735092,637.507019 162.203949,636.346008 
	C170.099655,630.104614 173.034775,616.316467 168.251846,607.243652 
	C166.174667,603.303406 163.660721,599.503113 158.170822,600.353638 
z"/>
<path fill="#FF8F05" opacity="1.000000" stroke="none" 
	d="
M465.945282,527.975342 
	C467.477570,523.370667 468.363068,518.396606 470.723206,514.264771 
	C473.105286,510.094574 478.457825,509.152863 482.107788,511.166718 
	C486.110016,513.374939 485.675568,517.141602 485.050873,520.799683 
	C483.625244,529.148315 477.935150,534.419556 470.508698,533.535034 
	C469.693512,533.633301 469.462646,534.056763 469.231750,534.480225 
	C470.347473,538.616211 471.994568,542.695068 472.446960,546.902405 
	C473.036957,552.389221 469.169647,555.619690 463.951752,553.955200 
	C456.843781,551.687683 449.869598,552.349182 442.789642,553.461243 
	C442.133240,553.564331 441.444916,553.853638 440.826324,553.744751 
	C436.903809,553.054260 430.871490,553.482971 429.595642,551.236450 
	C427.798523,548.072021 429.138550,542.832703 429.901520,538.618958 
	C430.349518,536.144653 432.279663,533.938721 433.010437,532.593018 
	C429.277985,530.620300 424.533813,529.429749 421.962860,526.396912 
	C419.191162,523.127319 417.537567,518.235291 417.049225,513.866394 
	C416.356293,507.666565 421.716339,504.531891 427.366882,507.206207 
	C434.683960,510.669250 440.436981,519.802795 436.840454,526.742065 
	C436.746887,527.730347 436.906586,528.169189 437.066284,528.608032 
	C437.377167,528.133301 437.688080,527.658630 437.998962,527.183899 
	C441.695282,525.388733 445.232391,523.033997 449.124390,521.926514 
	C455.323395,520.162537 460.510315,522.605713 464.810486,528.059937 
	C465.501190,528.891846 465.935974,529.181396 466.370789,529.470886 
	C466.228973,528.972351 466.087128,528.473877 465.945282,527.975342 
z"/>
<path fill="#0782A7" opacity="1.000000" stroke="none" 
	d="
M107.024239,483.143158 
	C110.885597,484.777496 114.569855,485.978119 117.804588,487.925446 
	C120.928810,489.806244 121.505562,492.484467 118.179634,495.132996 
	C113.023506,499.238953 107.938248,503.433899 102.194366,508.101990 
	C105.149803,509.071930 107.605270,509.765717 109.978149,510.675049 
	C123.884888,516.004211 126.853775,527.235413 116.520264,537.837219 
	C110.663239,543.846191 103.621475,548.714905 96.993294,553.945068 
	C95.746513,554.928894 93.956085,555.608521 92.375198,555.697937 
	C89.698593,555.849487 86.989006,555.418396 84.293274,555.232300 
	C85.235710,553.141235 86.291283,551.092041 87.084129,548.945679 
	C87.698418,547.282776 88.529686,545.431274 88.325996,543.779297 
	C87.150139,534.242065 85.636543,524.747009 84.379082,515.218994 
	C84.089195,513.022339 84.382591,510.752319 84.356728,508.516632 
	C84.286575,502.450226 84.366142,496.371765 83.944733,490.328888 
	C83.865799,489.196960 81.713432,488.234924 80.564377,487.145477 
	C79.314606,485.960388 78.119041,484.718109 76.899841,483.500793 
	C78.585052,481.978973 80.150795,479.321320 81.975868,479.129395 
	C90.463898,478.236633 98.967361,478.365784 107.024239,483.143158 
M109.900574,520.792664 
	C107.446297,519.479126 105.127800,517.659851 102.509598,516.956787 
	C96.985092,515.473389 94.319633,518.319763 95.335686,523.980042 
	C96.008118,527.726013 96.497078,531.505188 97.189552,535.247131 
	C97.676971,537.880920 98.368462,540.477051 99.230179,544.227417 
	C103.479584,540.154236 107.126350,537.239258 110.033089,533.714050 
	C113.122742,529.966980 113.649376,525.594116 109.900574,520.792664 
M95.560822,489.096344 
	C94.824051,492.938232 94.087288,496.780151 93.309975,500.833527 
	C99.818077,500.900787 103.974792,499.079010 105.631897,495.514313 
	C106.173538,494.349121 105.982300,491.608429 105.383835,491.357269 
	C102.448700,490.125488 99.263329,489.490021 95.560822,489.096344 
z"/>
<path fill="#FF9006" opacity="1.000000" stroke="none" 
	d="
M377.061279,643.971924 
	C376.334808,628.396362 375.567383,613.276917 375.044922,598.149048 
	C374.891052,593.693909 373.819824,590.613708 368.640564,590.781006 
	C368.153656,590.796753 367.663666,590.576721 367.169037,590.515442 
	C362.738464,589.967346 358.212280,589.445190 358.186371,583.435974 
	C358.170227,579.688782 361.259796,577.917114 368.338379,577.877502 
	C373.993958,577.845825 379.669861,578.585632 385.303467,578.307922 
	C390.863098,578.033936 396.386108,576.947876 401.914307,576.143311 
	C403.878937,575.857422 405.796570,575.243530 407.762207,574.970764 
	C411.243683,574.487671 413.517059,576.028503 414.578400,579.381836 
	C415.653320,582.778076 414.518158,585.730835 411.473145,586.920776 
	C406.886536,588.713013 402.019196,589.884644 397.184265,590.910278 
	C393.788605,591.630554 390.248260,591.668701 385.372375,592.149536 
	C386.079285,600.360413 386.492462,608.558594 387.551819,616.672363 
	C389.164581,629.024475 391.375610,641.298462 392.987854,653.650635 
	C393.383453,656.681519 392.736206,659.953735 392.037842,662.993103 
	C391.317505,666.128052 389.172607,668.883240 385.725128,667.948914 
	C383.672180,667.392456 381.170380,665.034851 380.626831,663.014465 
	C378.993256,656.942383 378.221710,650.638367 377.061279,643.971924 
z"/>
<path fill="#FF9006" opacity="1.000000" stroke="none" 
	d="
M552.202759,602.693970 
	C552.044739,606.910156 552.044739,610.712891 552.044739,615.196655 
	C557.309082,614.005981 562.233154,612.840881 567.182922,611.798340 
	C569.123901,611.389587 571.119019,611.079956 573.096191,611.037109 
	C576.107727,610.971802 578.865662,611.698486 579.477417,615.249146 
	C580.068298,618.678467 579.216370,621.795959 575.689270,623.023499 
	C571.951843,624.324341 567.997009,624.994873 564.146484,625.977539 
	C560.458740,626.918701 556.448914,627.297913 553.211182,629.073547 
	C550.758240,630.418823 548.451904,633.296631 547.579468,635.979736 
	C546.042175,640.707825 548.245972,643.044006 553.201294,642.966553 
	C558.685242,642.880859 564.174744,642.365112 569.645874,642.538391 
	C572.839539,642.639526 576.774719,642.811340 577.055420,647.453613 
	C577.320618,651.840881 574.691406,654.177368 570.634033,655.026855 
	C559.194214,657.422180 548.211548,655.022827 536.501160,651.859741 
	C537.816650,641.298767 539.414368,630.970032 540.286072,620.580444 
	C540.851501,613.841309 540.686523,606.990723 540.224915,600.232666 
	C539.903503,595.526550 540.793762,591.483337 545.322205,590.026367 
	C551.865845,587.921021 558.653442,586.309631 565.458923,585.397339 
	C568.716858,584.960571 572.754517,586.139099 573.319946,590.663818 
	C573.878906,595.136230 570.431458,596.711487 567.074341,597.853821 
	C562.228760,599.502686 557.270813,600.821106 552.202759,602.693970 
z"/>
<path fill="#FF9006" opacity="1.000000" stroke="none" 
	d="
M283.557190,594.697632 
	C279.294464,596.138977 275.418243,597.929321 271.374756,598.470642 
	C266.441833,599.130981 264.930298,601.775146 265.079102,606.134216 
	C265.162598,608.578796 265.406769,611.017944 265.602844,613.805420 
	C272.113434,612.390747 278.001434,610.923950 283.964081,609.885620 
	C287.583618,609.255310 291.614899,608.942810 292.903687,613.746460 
	C294.117279,618.269897 291.735352,621.644470 286.116180,622.948425 
	C280.138031,624.335693 273.962708,624.891541 268.008118,626.357300 
	C261.096741,628.058411 259.085876,632.157593 260.790802,638.612610 
	C261.555145,641.506409 263.078766,642.368713 265.761108,642.147400 
	C271.228607,641.696289 276.693451,641.108643 282.171082,640.922729 
	C285.636414,640.805176 289.541840,640.714111 290.101868,645.653870 
	C290.626129,650.277893 287.751831,652.403320 283.818298,653.207886 
	C273.303497,655.358459 262.941559,654.210022 252.869080,650.836853 
	C251.669327,650.435059 250.367462,647.715271 250.549026,646.247620 
	C251.546570,638.184204 252.896576,630.159363 254.310226,622.153870 
	C255.620575,614.733459 256.378815,607.457642 254.273621,599.949768 
	C252.387070,593.221680 254.012085,589.613281 260.708771,587.452515 
	C267.040222,585.409668 273.863831,584.639160 280.535767,584.075012 
	C282.293213,583.926392 285.290588,586.280823 285.888916,588.090637 
	C286.458618,589.813843 284.638824,592.327087 283.557190,594.697632 
z"/>
<path fill="#0782A7" opacity="1.000000" stroke="none" 
	d="
M415.668976,123.311378 
	C420.445282,131.590637 425.006805,139.581329 429.568329,147.572037 
	C428.978424,148.039597 428.388550,148.507172 427.798645,148.974731 
	C420.218964,141.680725 412.271790,134.727051 405.135681,127.022217 
	C390.045258,110.729126 373.733032,96.306519 352.066772,89.455566 
	C345.587708,87.406876 338.872864,86.113586 332.332550,84.241821 
	C330.775055,83.796089 328.282318,82.353729 328.328278,81.480705 
	C328.416840,79.797012 329.642151,77.610458 331.074097,76.707535 
	C332.732452,75.661819 335.187378,75.223251 337.182129,75.464958 
	C370.427704,79.493408 396.702789,95.091408 415.668976,123.311378 
z"/>
<path fill="#0A83A7" opacity="1.000000" stroke="none" 
	d="
M631.216309,517.165955 
	C630.690369,514.310242 630.219360,511.886444 629.686890,509.146423 
	C626.447754,510.388824 623.647217,511.694885 620.711975,512.524048 
	C617.743225,513.362671 614.366211,512.825745 614.011658,509.462921 
	C613.833740,507.775879 616.608276,504.313934 618.316223,504.128540 
	C629.628113,502.900574 634.178406,496.868378 633.480408,485.757141 
	C633.246155,482.026672 634.144348,478.101685 635.205017,474.463898 
	C635.757263,472.569794 637.610718,469.960297 639.194641,469.713074 
	C641.701599,469.321777 644.603821,470.358734 647.040100,471.455078 
	C647.595642,471.705048 647.322327,474.805634 646.763306,476.353210 
	C643.966187,484.096710 642.386719,491.971283 643.077637,500.459503 
	C647.443665,500.133545 651.553650,499.544128 655.643250,499.661865 
	C657.256653,499.708313 658.824585,501.331238 660.413269,502.236359 
	C659.235535,503.873199 658.371582,506.419922 656.814453,506.957031 
	C653.596313,508.067017 650.017517,508.186218 646.570007,508.553467 
	C644.802307,508.741760 642.998047,508.586487 640.365051,508.586487 
	C640.731689,516.532715 641.021118,523.944519 641.429016,531.349854 
	C641.904419,539.981750 642.493652,548.607239 643.010742,557.236877 
	C643.161133,559.747009 642.790466,562.474365 639.625732,562.005798 
	C637.872070,561.746216 635.168396,559.750427 634.993408,558.286194 
	C633.733093,547.738892 633.017395,537.126770 632.113586,526.536499 
	C631.859131,523.554688 631.553406,520.577271 631.216309,517.165955 
z"/>
<path fill="#0882A7" opacity="1.000000" stroke="none" 
	d="
M319.150635,501.033020 
	C324.809906,500.905518 325.568207,503.987091 325.641571,508.506073 
	C325.791779,517.754639 326.277832,527.022522 327.244110,536.217407 
	C327.521393,538.856140 329.917358,541.272217 331.341919,543.790344 
	C333.855103,542.101013 337.029602,540.915100 338.765625,538.634277 
	C345.846222,529.331909 346.450775,519.137878 341.614105,508.578094 
	C340.854675,506.919983 339.613464,505.422943 339.158264,503.702423 
	C338.734558,502.101105 338.389221,499.419342 339.213379,498.790192 
	C340.526611,497.787537 343.056549,497.429016 344.689392,497.964539 
	C350.636047,499.914948 353.097229,505.088806 353.724854,510.630920 
	C354.862244,520.674316 353.812225,530.639343 348.885193,539.697571 
	C347.181763,542.829285 344.791199,545.867188 342.024963,548.089783 
	C332.750977,555.541321 322.919464,553.166809 317.977478,542.391052 
	C312.599304,530.664185 312.359344,518.210327 313.947998,505.721985 
	C314.167694,503.995148 317.079620,502.610840 319.150635,501.033020 
z"/>
<path fill="#0681A6" opacity="1.000000" stroke="none" 
	d="
M266.409241,502.272644 
	C269.185699,505.987122 271.969452,509.434387 273.885071,513.310669 
	C276.426971,518.454285 278.291138,523.932861 280.446564,529.267456 
	C281.092072,529.293579 281.737549,529.319763 282.383057,529.345886 
	C284.915192,523.178040 287.655853,517.085388 289.917480,510.819885 
	C291.944977,505.202850 293.221130,499.311462 295.316437,493.724030 
	C295.935333,492.073639 298.206482,489.969391 299.727234,489.963928 
	C302.519165,489.953918 305.396179,491.170044 308.024963,492.349335 
	C308.420715,492.526886 307.951782,495.379913 307.388611,496.799194 
	C306.006348,500.282684 304.211700,503.601440 302.803680,507.075928 
	C298.004913,518.917297 293.545807,530.903076 288.469452,542.622559 
	C285.451355,549.590271 280.079224,550.344421 276.335876,543.852234 
	C269.726562,532.389282 264.102600,520.336609 258.493805,508.331024 
	C256.718628,504.531281 259.636353,502.384552 266.409241,502.272644 
z"/>
<path fill="#0982A7" opacity="1.000000" stroke="none" 
	d="
M374.455322,539.828857 
	C374.169708,544.640625 376.672455,547.417236 381.538574,547.001221 
	C385.576385,546.656067 389.515564,545.156738 393.578125,544.148926 
	C396.199280,548.540833 394.990295,551.933228 390.090240,553.308655 
	C374.773773,557.608154 363.450806,550.936768 359.896271,535.249268 
	C358.911774,530.904419 358.253052,526.384644 358.242615,521.943237 
	C358.225586,514.700928 360.860107,508.420471 367.799255,505.161407 
	C374.902985,501.825043 381.802582,503.028595 387.902863,507.823395 
	C389.944550,509.428192 391.720642,511.559845 393.111359,513.769653 
	C397.999878,521.537048 397.098877,525.267273 389.435272,530.206543 
	C384.553833,533.352783 379.635590,536.442017 374.455322,539.828857 
M367.603516,521.590210 
	C368.436096,529.478210 370.986420,530.984009 378.405731,527.930237 
	C379.320557,527.553711 380.586243,527.242554 380.976746,526.517395 
	C382.540894,523.612610 385.241760,520.298584 384.757660,517.639221 
	C384.378265,515.555115 380.112640,513.328613 377.246124,512.727783 
	C371.643433,511.553528 368.955200,514.221069 367.603516,521.590210 
z"/>
<path fill="#0882A7" opacity="1.000000" stroke="none" 
	d="
M605.712524,544.841675 
	C607.381042,545.010010 608.680359,545.319153 609.979675,545.628296 
	C608.983154,548.036011 608.663757,551.570312 606.868591,552.649170 
	C600.398438,556.537781 589.042969,554.857300 583.339661,549.954529 
	C575.026001,542.807800 570.625183,523.410095 575.133362,513.447632 
	C577.820068,507.510681 582.483337,504.014465 588.977661,503.494415 
	C596.947144,502.856201 603.206970,506.206726 607.726501,512.693298 
	C613.385742,520.815552 612.382996,525.436768 604.022827,530.654175 
	C599.800598,533.289185 595.584778,535.935425 591.327576,538.513123 
	C587.685364,540.718567 588.572998,543.001343 591.252197,545.129639 
	C595.937317,548.851257 600.662354,546.862915 605.712524,544.841675 
M600.086426,521.471497 
	C601.844299,517.762634 600.103638,515.339478 596.926147,513.821228 
	C592.994873,511.942810 588.894775,511.428772 585.335693,514.637451 
	C582.579224,517.122559 581.503784,524.473389 584.140686,527.063721 
	C585.668579,528.564575 589.443237,529.242126 591.467285,528.435303 
	C594.603394,527.185059 597.107727,524.349854 600.086426,521.471497 
z"/>
<path fill="#0782A7" opacity="1.000000" stroke="none" 
	d="
M162.892197,516.218750 
	C165.495056,524.062073 165.078003,525.485168 158.548187,529.781128 
	C153.970413,532.792908 149.305313,535.679749 144.591156,538.473816 
	C140.933456,540.641785 141.404434,543.419189 144.430222,544.876282 
	C147.310608,546.263306 150.965836,546.592163 154.236191,546.439575 
	C156.735931,546.322937 159.166763,544.729187 161.591003,543.806580 
	C164.764435,548.249084 163.374496,552.055298 158.236252,553.351929 
	C140.777313,557.757690 129.011902,548.596130 127.102989,529.075500 
	C126.909019,527.091919 126.850182,525.090149 126.827950,523.095642 
	C126.721870,513.580139 130.674271,506.953979 137.955017,504.367371 
	C145.771973,501.590240 155.062363,504.721191 160.466675,512.020264 
	C161.349869,513.213135 161.995773,514.581726 162.892197,516.218750 
M142.320618,512.691650 
	C136.666763,514.897095 134.341064,520.751831 136.851608,526.459290 
	C138.243713,529.624084 142.565704,530.097046 147.724564,527.649170 
	C151.653824,525.784729 154.986832,520.777100 153.786270,517.756226 
	C151.884781,512.971619 147.658188,512.225952 142.320618,512.691650 
z"/>
<path fill="#0781A6" opacity="1.000000" stroke="none" 
	d="
M249.671387,529.678589 
	C244.733887,532.800476 240.150009,535.814209 235.421173,538.580200 
	C231.937378,540.617798 232.384369,543.326294 235.151505,544.634155 
	C238.179199,546.065247 241.935211,546.490967 245.346848,546.395203 
	C247.824173,546.325684 250.257660,544.694824 252.663788,543.778015 
	C255.585953,548.430176 254.360641,551.877930 249.506546,553.216064 
	C233.902206,557.517639 222.381119,550.663574 219.123566,534.808105 
	C218.195038,530.288574 217.838364,525.566895 217.892685,520.945862 
	C218.058548,506.837891 231.717667,498.788055 243.978577,505.830505 
	C247.665146,507.948029 250.946060,511.570953 253.174988,515.253479 
	C257.267975,522.015625 256.288971,524.779968 249.671387,529.678589 
M238.593216,512.843628 
	C233.895905,511.661011 229.320831,512.307617 228.073059,517.371582 
	C227.221420,520.827881 228.694107,524.856812 229.127579,528.629761 
	C233.042831,527.846130 237.550293,528.030701 240.748398,526.074524 
	C247.143967,522.162659 246.224838,516.252380 238.593216,512.843628 
z"/>
<path fill="#0782A7" opacity="1.000000" stroke="none" 
	d="
M366.410767,139.470123 
	C341.089447,139.283569 322.433197,126.939796 306.391663,109.299286 
	C301.139069,103.523102 295.573822,98.031219 290.018280,92.271149 
	C295.682159,91.119492 301.477814,91.695404 306.646576,94.885452 
	C310.860229,97.486031 314.939575,100.501160 318.496826,103.935013 
	C335.834686,120.671562 356.496887,131.115692 379.660858,137.007156 
	C381.046631,137.359619 382.406799,137.812973 383.778870,138.219376 
	C383.732727,138.660690 383.686584,139.101990 383.640442,139.543304 
	C378.048004,139.543304 372.455566,139.543304 366.410767,139.470123 
z"/>
<path fill="#0983A7" opacity="1.000000" stroke="none" 
	d="
M171.806183,540.350037 
	C172.782135,525.165405 173.982574,510.457611 171.199921,495.722748 
	C170.459885,491.804077 171.096558,487.445435 171.928558,483.461639 
	C172.724106,479.652405 176.020859,478.267273 179.697601,479.033051 
	C183.451904,479.814941 182.886810,482.935486 182.883224,485.831360 
	C182.861298,503.577148 183.124893,521.325195 182.902191,539.067566 
	C182.845062,543.619690 181.603073,548.209961 180.489426,552.679016 
	C179.596848,556.260925 176.847443,556.988708 173.428711,556.154602 
	C170.029968,555.325256 169.427338,552.929260 169.866150,550.058105 
	C170.341537,546.947510 171.101532,543.880432 171.806183,540.350037 
z"/>
<path fill="#0982A7" opacity="1.000000" stroke="none" 
	d="
M197.110870,528.860291 
	C196.517242,516.807129 195.741638,505.241577 195.383026,493.663116 
	C195.267899,489.945862 195.480484,485.823853 197.026764,482.598206 
	C197.950012,480.672241 201.776291,479.146362 204.258102,479.202057 
	C207.595520,479.276886 207.360947,482.500793 207.341156,485.357666 
	C207.235413,500.627319 207.602005,515.903015 207.314758,531.167419 
	C207.182129,538.216003 206.187195,545.283447 205.089737,552.264771 
	C204.491898,556.067810 201.571091,557.176514 197.869965,556.115112 
	C194.045242,555.018188 193.920410,552.306152 194.416565,549.035461 
	C195.409943,542.486755 196.210464,535.908813 197.110870,528.860291 
z"/>
<path fill="#FF8F05" opacity="1.000000" stroke="none" 
	d="
M472.822327,503.363495 
	C471.273071,506.731659 470.246490,510.020355 468.265228,512.566040 
	C463.868317,518.215454 456.386444,516.810913 454.309875,509.941101 
	C452.285461,503.243713 453.732819,496.716370 458.897705,492.143646 
	C461.157532,490.142975 465.860901,489.242096 468.730927,490.144226 
	C470.825073,490.802460 471.988983,495.132568 473.065582,498.013397 
	C473.598572,499.439575 472.998962,501.288971 472.822327,503.363495 
z"/>
<path fill="#FF9008" opacity="1.000000" stroke="none" 
	d="
M441.002197,514.174805 
	C434.448883,509.695007 431.323364,501.403229 433.355804,494.426727 
	C434.462097,490.629333 436.848907,487.983185 440.934387,487.497711 
	C444.919678,487.024170 447.526764,489.197021 449.248291,492.559692 
	C451.923798,497.785889 452.702728,503.250122 450.875275,508.912415 
	C449.340363,513.668396 446.607910,515.156128 441.002197,514.174805 
z"/>
<path fill="#FF9008" opacity="1.000000" stroke="none" 
	d="
M465.705994,527.980347 
	C466.087128,528.473877 466.228973,528.972351 466.370789,529.470886 
	C465.935974,529.181396 465.501190,528.891846 465.028259,528.316589 
	C464.990112,528.030823 465.466675,527.985413 465.705994,527.980347 
z"/>
<path fill="#FF8F05" opacity="1.000000" stroke="none" 
	d="
M437.761536,527.112244 
	C437.688080,527.658630 437.377167,528.133301 437.066284,528.608032 
	C436.906586,528.169189 436.746887,527.730347 436.809204,527.138306 
	C437.031189,526.985168 437.524109,527.040588 437.761536,527.112244 
z"/>
<path fill="#0580A6" opacity="1.000000" stroke="none" 
	d="
M283.987640,114.008408 
	C284.219025,114.180191 284.475739,114.330620 284.732483,114.481049 
	C284.459595,114.459854 284.186707,114.438644 283.989014,114.181168 
	C284.064209,113.944893 284.013000,113.987061 283.987640,114.008408 
z"/>
<path fill="#0681A6" opacity="1.000000" stroke="none" 
	d="
M232.966064,49.971100 
	C232.820969,50.333561 232.519958,50.538361 232.218933,50.743160 
	C232.184097,50.479912 232.149246,50.216671 232.298767,49.733658 
	C232.483124,49.513882 232.810135,49.813438 232.966064,49.971100 
z"/>
<path fill="#F9FCFD" opacity="1.000000" stroke="none" 
	d="
M652.074341,253.987610 
	C652.466309,257.197052 652.798645,259.972839 653.279053,263.984955 
	C645.949219,263.389618 639.198914,262.841370 631.323669,262.201752 
	C635.673096,251.160431 639.796997,240.691574 644.203857,229.504349 
	C649.731995,237.203018 650.583191,245.473923 652.074341,253.987610 
z"/>
<path fill="#FFF7ED" opacity="1.000000" stroke="none" 
	d="
M103.402008,628.599304 
	C102.318253,627.306396 101.046402,625.982239 101.138588,624.761108 
	C101.487488,620.139587 102.278740,615.551514 102.907951,610.925476 
	C108.993652,612.209229 110.685272,615.673340 111.635971,628.615356 
	C109.020302,628.615356 106.430283,628.615356 103.402008,628.599304 
z"/>
<path fill="#FFFDFA" opacity="1.000000" stroke="none" 
	d="
M516.531555,608.379578 
	C511.182190,613.770630 504.619171,614.652405 499.841125,610.894165 
	C495.092529,607.159119 492.952118,597.602722 497.078369,593.388611 
	C499.394409,591.023254 504.149536,590.382446 507.861694,590.216614 
	C512.453735,590.011414 516.630615,592.558960 517.632080,597.164185 
	C518.374329,600.577148 517.125061,604.423218 516.531555,608.379578 
z"/>
<path fill="#FBFDFE" opacity="1.000000" stroke="none" 
	d="
M526.927124,511.077972 
	C527.893250,505.936218 529.076538,501.268402 529.592529,496.527954 
	C529.836182,494.289124 528.800720,491.911102 528.253174,489.130890 
	C539.815186,486.537750 548.055420,493.410614 556.563721,499.424622 
	C554.777283,509.550812 543.495422,518.718018 533.377991,518.426086 
	C527.998352,518.270874 526.991943,517.203064 526.927124,511.077972 
z"/>
<path fill="#FFFDFB" opacity="1.000000" stroke="none" 
	d="
M158.253571,599.952271 
	C163.660721,599.503113 166.174667,603.303406 168.251846,607.243652 
	C173.034775,616.316467 170.099655,630.104614 162.203949,636.346008 
	C160.735092,637.507019 158.950150,638.268188 158.170822,638.717834 
	C158.170822,625.855225 158.170822,613.104431 158.253571,599.952271 
z"/>
<path fill="#FFFFFE" opacity="1.000000" stroke="none" 
	d="
M469.512329,534.302368 
	C469.462646,534.056763 469.693512,533.633301 470.112732,533.453186 
	C470.131714,533.839111 469.962280,533.981750 469.512329,534.302368 
z"/>
<path fill="#F9FCFD" opacity="1.000000" stroke="none" 
	d="
M110.169594,521.081665 
	C113.649376,525.594116 113.122742,529.966980 110.033089,533.714050 
	C107.126350,537.239258 103.479584,540.154236 99.230179,544.227417 
	C98.368462,540.477051 97.676971,537.880920 97.189552,535.247131 
	C96.497078,531.505188 96.008118,527.726013 95.335686,523.980042 
	C94.319633,518.319763 96.985092,515.473389 102.509598,516.956787 
	C105.127800,517.659851 107.446297,519.479126 110.169594,521.081665 
z"/>
<path fill="#F3F9FB" opacity="1.000000" stroke="none" 
	d="
M95.863586,488.870117 
	C99.263329,489.490021 102.448700,490.125488 105.383835,491.357269 
	C105.982300,491.608429 106.173538,494.349121 105.631897,495.514313 
	C103.974792,499.079010 99.818077,500.900787 93.309975,500.833527 
	C94.087288,496.780151 94.824051,492.938232 95.863586,488.870117 
z"/>
<path fill="#FBFDFE" opacity="1.000000" stroke="none" 
	d="
M367.654755,521.156616 
	C368.955200,514.221069 371.643433,511.553528 377.246124,512.727783 
	C380.112640,513.328613 384.378265,515.555115 384.757660,517.639221 
	C385.241760,520.298584 382.540894,523.612610 380.976746,526.517395 
	C380.586243,527.242554 379.320557,527.553711 378.405731,527.930237 
	C370.986420,530.984009 368.436096,529.478210 367.654755,521.156616 
z"/>
<path fill="#F9FCFD" opacity="1.000000" stroke="none" 
	d="
M599.983154,521.829102 
	C597.107727,524.349854 594.603394,527.185059 591.467285,528.435303 
	C589.443237,529.242126 585.668579,528.564575 584.140686,527.063721 
	C581.503784,524.473389 582.579224,517.122559 585.335693,514.637451 
	C588.894775,511.428772 592.994873,511.942810 596.926147,513.821228 
	C600.103638,515.339478 601.844299,517.762634 599.983154,521.829102 
z"/>
<path fill="#F7FBFC" opacity="1.000000" stroke="none" 
	d="
M142.701935,512.614014 
	C147.658188,512.225952 151.884781,512.971619 153.786270,517.756226 
	C154.986832,520.777100 151.653824,525.784729 147.724564,527.649170 
	C142.565704,530.097046 138.243713,529.624084 136.851608,526.459290 
	C134.341064,520.751831 136.666763,514.897095 142.701935,512.614014 
z"/>
<path fill="#F7FBFC" opacity="1.000000" stroke="none" 
	d="
M238.971664,512.927673 
	C246.224838,516.252380 247.143967,522.162659 240.748398,526.074524 
	C237.550293,528.030701 233.042831,527.846130 229.127579,528.629761 
	C228.694107,524.856812 227.221420,520.827881 228.073059,517.371582 
	C229.320831,512.307617 233.895905,511.661011 238.971664,512.927673 
z"/>
</svg>